<svg width="25" height="25" viewBox="0 0 25 25" fill="none" xmlns="http://www.w3.org/2000/svg">
<path d="M10.6592 8.59103V8.59112C10.6592 9.22185 10.4146 9.82484 9.98384 10.267C9.55351 10.7087 8.97215 10.9548 8.36944 10.9548H2.7898C2.18709 10.9548 1.60573 10.7087 1.17539 10.267C0.744625 9.82484 0.5 9.22185 0.5 8.59112V2.86369C0.5 2.23295 0.744625 1.62997 1.17539 1.1878C1.60573 0.746061 2.18709 0.5 2.7898 0.5H8.36944C8.97289 0.5 9.55344 0.745888 9.98501 1.18797C10.4157 1.63011 10.6602 2.23298 10.6602 2.8636C10.6602 2.86363 10.6602 2.86366 10.6602 2.86369L10.6592 8.59103ZM9.80002 8.59114V8.59105L9.79901 2.86369C9.79901 2.86366 9.79901 2.86363 9.79901 2.8636C9.79898 2.48168 9.65069 2.1132 9.38473 1.8402C9.11835 1.56677 8.75331 1.40948 8.36941 1.40948H2.78977C2.4059 1.40948 2.04083 1.56676 1.77444 1.84021L2.13259 2.18911L1.77444 1.84021C1.50849 2.11322 1.36018 2.48171 1.36018 2.86369V8.59216C1.36018 8.97411 1.50847 9.34264 1.77445 9.61565C2.04084 9.88908 2.40588 10.0464 2.78977 10.0464H2.78986L8.37043 10.0454C8.37046 10.0454 8.37049 10.0454 8.37052 10.0454C8.75436 10.0453 9.11939 9.88805 9.38576 9.61462C9.65171 9.34161 9.80002 8.97312 9.80002 8.59114Z" fill="white" stroke="white"/>
<path d="M10.6592 21.9562V21.9563C10.6592 22.5871 10.4146 23.1901 9.98384 23.6322C9.55351 24.074 8.97215 24.32 8.36944 24.32H2.7898C2.18709 24.32 1.60573 24.074 1.17539 23.6322C0.744625 23.1901 0.5 22.5871 0.5 21.9563V16.2289C0.5 15.5974 0.744436 14.9953 1.17551 14.5519C1.60584 14.1102 2.18715 13.8642 2.7898 13.8642H8.36944C8.97291 13.8642 9.55335 14.1101 9.98484 14.553C10.4156 14.9952 10.6602 15.5981 10.6602 16.2288C10.6602 16.2288 10.6602 16.2289 10.6602 16.2289L10.6592 21.9562ZM9.80002 21.9564V21.9563L9.79901 16.229C9.79901 16.2289 9.79901 16.2289 9.79901 16.2289C9.79898 15.8469 9.65069 15.4785 9.38473 15.2055C9.11835 14.932 8.75331 14.7747 8.36941 14.7747H2.78977C2.4059 14.7747 2.04083 14.932 1.77444 15.2055L2.13259 15.5544L1.77444 15.2055C1.50849 15.4785 1.36018 15.847 1.36018 16.229V21.9564C1.36018 22.3383 1.50847 22.7069 1.77445 22.9799C2.04084 23.2533 2.40588 23.4106 2.78977 23.4106H8.37043C8.7543 23.4106 9.11937 23.2533 9.38576 22.9799C9.65171 22.7069 9.80002 22.3384 9.80002 21.9564Z" fill="white" stroke="white"/>
<path d="M22.8195 8.59112V8.59103L22.8185 2.86366C22.8185 2.86363 22.8185 2.86361 22.8185 2.86358C22.8185 2.48166 22.6702 2.11317 22.4043 1.84018L22.4043 1.84017C22.1379 1.56674 21.7728 1.40945 21.389 1.40945H15.8093C15.4254 1.40945 15.0604 1.56673 14.794 1.84018C14.528 2.11319 14.3797 2.48169 14.3797 2.86366V2.86375L14.3807 8.59214C14.3807 8.59217 14.3807 8.5922 14.3807 8.59222C14.3807 8.97414 14.529 9.34263 14.795 9.61563C15.0614 9.88906 15.4264 10.0464 15.8103 10.0464H15.8104L21.3899 10.0453C21.39 10.0453 21.39 10.0453 21.39 10.0453C21.7739 10.0453 22.1389 9.88803 22.4053 9.6146C22.6712 9.34159 22.8195 8.97309 22.8195 8.59112ZM21.3899 0.5C21.9927 0.5 22.574 0.746061 23.0044 1.18779C23.4351 1.62997 23.6797 2.23295 23.6797 2.86369V8.59112C23.6797 9.2228 23.4352 9.82477 23.0044 10.267C22.574 10.7087 21.9927 10.9548 21.3899 10.9548H15.8103C15.2076 10.9548 14.6262 10.7087 14.1959 10.267C13.7651 9.82484 13.5205 9.22185 13.5205 8.59112V2.86369C13.5205 2.23295 13.7651 1.62997 14.1959 1.1878C14.6262 0.746061 15.2076 0.5 15.8103 0.5H21.3899Z" fill="white" stroke="white"/>
<path d="M15.0135 22.7926L15.013 22.7921C14.0586 21.8134 13.5205 20.4818 13.5205 19.0916C13.5205 17.7017 14.0594 16.3709 15.0134 15.3907C15.9662 14.4115 17.2573 13.8643 18.5998 13.8642C19.9423 13.8661 21.2318 14.4143 22.1863 15.3931C23.14 16.372 23.6789 17.7028 23.6798 19.0929C23.6797 20.4831 23.1416 21.8145 22.1881 22.7933L22.1881 22.7933C21.234 23.7727 19.9427 24.32 18.6001 24.32C17.2566 24.32 15.9666 23.7728 15.0135 22.7926ZM15.6102 22.1409L15.6102 22.1409C16.4009 22.9525 17.476 23.4105 18.5991 23.4105C19.7233 23.4105 20.7973 22.9525 21.588 22.1409C22.3784 21.3306 22.8195 20.2332 22.8195 19.0916C22.8195 17.9497 22.3782 16.8534 21.588 16.0423L21.588 16.0423C20.7973 15.2307 19.7222 14.7726 18.5991 14.7726C17.4749 14.7726 16.4009 15.2307 15.6102 16.0423L15.6102 16.0423C14.82 16.8535 14.3787 17.9508 14.3787 19.0916C14.3787 20.2335 14.82 21.3298 15.6102 22.1409Z" fill="white" stroke="white"/>
</svg>
