<svg width="159" height="159" viewBox="0 0 159 159" fill="none" xmlns="http://www.w3.org/2000/svg">
<g filter="url(#filter0_d_47_5745)">
<path d="M79.7578 154.104C121.179 154.104 154.758 120.525 154.758 79.104C154.758 37.6826 121.179 4.104 79.7578 4.104C38.3365 4.104 4.75781 37.6826 4.75781 79.104C4.75781 120.525 38.3365 154.104 79.7578 154.104Z" fill="#F0F0F0"/>
</g>
<circle cx="79.7578" cy="79.104" r="66.5" fill="#363535"/>
<g clip-path="url(#clip0_47_5745)">
<path fill-rule="evenodd" clip-rule="evenodd" d="M90.28 88.8169C89.5838 87.9339 89.5141 86.3895 88.718 85.5481C87.6668 84.4373 85.7232 85.1767 86.6386 83.431C88.3015 82.861 92.3529 86.7485 90.2809 88.8169H90.28ZM48.5654 67.7725C49.7211 67.0562 50.2467 67.3611 51.2254 66.4356C52.0151 65.6882 52.3417 65.2564 53.1488 64.6491C60.8783 58.8342 77.7158 68.1927 68.472 69.7628C66.4064 70.1139 63.5676 70.1494 61.3901 70.246C52.9424 70.6219 55.7941 70.1866 48.3939 72.091C48.4251 70.9296 48.8177 70.746 48.9305 69.8559C49.0213 69.1396 48.6562 68.6484 48.5664 67.7725H48.5654ZM85.1114 64.2706C84.1795 61.0754 89.7168 57.1107 91.2275 55.8234C93.427 53.9492 97.8132 51.0483 102.097 52.2106C101.91 54.0697 99.677 53.6327 97.1418 54.7409C95.6339 55.3996 90.6194 59.7056 88.9665 61.1676C87.144 62.7785 86.2497 64.2289 85.1105 64.2697L85.1114 64.2706ZM110.16 55.1123C108.503 54.3854 107.343 52.0005 103.685 51.4065C94.4699 49.9091 88.4621 58.3474 86.2231 58.4893C84.8785 58.5744 84.2905 56.8731 84.606 55.5069C85.3068 52.4695 92.4015 48.5163 97.3023 48.0659C103.093 47.5331 109.207 51.2141 110.16 55.1123ZM49.423 55.3171C49.6313 53.2311 52.4508 50.8595 54.0202 49.9587C58.7824 47.2255 65.4608 48.0172 70.0331 50.6919C77.1921 54.8801 75.3925 59.0505 72.8472 58.413C70.8972 57.9245 69.7002 54.8694 63.8804 52.5041C54.5999 48.7326 51.7088 53.857 49.423 55.3171ZM69.1856 89.3701C69.1636 89.9366 69.0774 90.317 68.9912 90.5891C67.9419 90.5661 68.417 90.5173 68.1647 90.3116C66.6953 89.6503 65.3461 87.3275 66.3046 85.1412C67.1063 83.3122 69.4406 83.4151 70.3679 81.5453C71.6942 78.8723 72.1116 71.6104 72.1519 68.2601C72.2189 62.6437 70.8531 61.7244 66.9751 58.0114C64.5582 55.6966 62.7412 54.5698 59.5281 53.7985C58.2477 53.4908 57.4424 53.4864 57.4057 52.262C59.9436 51.3595 63.2053 52.3808 65.0856 53.5307C66.2037 54.2143 66.9063 54.8561 67.8593 55.4608C70.1496 56.9138 73.6874 60.2704 74.833 62.5613C77.6131 68.1227 76.395 81.5506 75.5402 87.769C74.9752 91.8764 74.2716 93.7533 77.3343 94.6159C80.9848 95.6443 82.0745 94.2542 84.252 93.1336C86.8881 94.8597 86.8881 98.5585 94.7038 95.3571C97.9132 94.0423 101.608 90.2301 102.288 87.6998C100.168 87.1262 95.887 87.6493 95 85.9808C95.61 85.4719 96.2117 85.6058 97.317 85.721C98.0122 85.7928 98.679 85.8717 99.3486 85.932C100.949 86.0774 102.162 86.0508 103.756 85.8637C107.069 85.4737 108.456 84.9355 110.301 83.2413C115.373 78.5886 114.6 78.3528 114.721 69.6839C112.524 69.5128 110.138 68.808 108.051 69.1777C105.456 69.6378 97.106 69.5846 93.7948 69.707C89.9874 69.8471 90.3002 69.9003 88.2511 68.0979C88.6455 66.1873 91.5164 64.9036 93.494 63.8512C97.6738 61.6277 105.548 62.6278 107.952 65.9825C109.092 67.573 108.768 66.9214 110.977 67.6679C112.192 68.0784 113.123 68.644 114.576 68.6839C115.224 64.8105 113.977 51.4322 113.203 47.2999C111.823 39.9157 110.096 36.3189 103.722 33.9039C92.4098 29.6183 74.7908 29.6795 62.4458 32.1282C55.3025 33.5449 50.62 35.5006 48.2958 41.0355C44.9167 49.0819 44.924 62.6455 44.7571 71.661C44.6691 76.3784 49.2304 84.5791 54.3531 85.0392C56.7352 85.2529 63.9455 84.1855 65.225 84.7688C64.2161 86.7078 57.5543 85.9338 56.1582 86.7299C55.8987 87.1954 55.9262 86.6696 56.1711 87.3745C57.5203 91.2541 62.8026 93.8366 66.5257 95.108C70.7009 96.5336 73.0903 94.7205 72.9435 93.0467C72.8114 91.5378 71.3154 92.1167 71.5117 89.9969C71.6566 88.4339 71.9538 87.1111 71.5392 85.6918C70.5394 85.9692 70.5092 86.3425 69.957 87.2237C69.4544 88.027 69.2755 88.2938 69.1819 89.3745L69.1856 89.3701Z" fill="#FEFEFE"/>
<path fill-rule="evenodd" clip-rule="evenodd" d="M100.528 100.713C100.649 100.173 100.94 99.9438 100.176 100.011L100.23 100.113C99.9857 100.362 100.16 100.274 99.7894 100.501C99.75 100.525 99.2923 100.736 99.2281 100.766L99.1428 100.816C98.8483 101.148 99.8949 101.231 98.5897 101.043C98.7071 100.772 98.6144 100.817 98.8291 100.555C99.1033 100.22 98.9593 100.399 99.2712 100.157C100.299 99.3134 100.883 98.4242 101.677 97.4676C103.823 94.885 107.403 91.7395 106.911 87.2455C105.525 88.0895 103.611 91.9869 102.536 93.7015C100.943 96.2415 99.5968 97.6875 97.1405 99.1636C92.5149 101.944 80.3515 104.19 74.6684 102.049C72.302 101.158 70.1887 102.602 62.0336 98.4739C56.0771 95.4586 55.5241 91.8299 52.3541 86.7641C52.0212 87.046 52.0065 86.3297 52.145 87.3785C52.7705 92.7493 58.5995 97.6307 62.0226 100.916C72.3964 110.875 79.2931 105.417 84.6827 108.311C84.0892 109.505 82.6831 110.664 82.4969 112.209C82.2429 114.319 83.3692 115.202 83.5389 117.039C83.8774 120.705 81.7063 125.126 82.2759 127.446C87.3261 127.139 90.8437 122.277 93.0964 119.531C94.3136 118.047 95.7912 115.721 96.935 114.008C101.542 107.104 112.555 92.033 111.95 83.7072C111.943 83.6115 111.912 83.5822 111.879 83.5264C110.582 84.4023 108.904 89.782 107.985 91.6845C106.608 94.5357 105.162 96.8665 103.567 99.3028C101.965 101.749 100.345 104.104 98.6713 106.468C97.9082 107.546 94.7199 112.779 93.489 113.143C93.6944 110.984 99.9564 102.987 100.529 100.712L100.528 100.713Z" fill="#FEFEFE"/>
<path fill-rule="evenodd" clip-rule="evenodd" d="M45.8477 82.3295C46.0724 85.0726 49.8981 92.9772 51.1997 95.3488C56.5214 105.047 59.3731 109.613 65.6011 117.848C67.685 120.603 71.1411 126.768 75.0531 126.919L76.0859 127.086L75.9455 125.505C75.9309 123.51 74.8173 120.873 74.6091 118.629C74.2432 114.689 79.7961 109.846 72.3335 107.697C70.367 107.13 67.9675 105.912 66.1771 105.65L65.4314 105.626L65.4231 111.005C65.5543 112.428 66.289 113.114 66.0111 114.625C64.5233 113.931 64.1968 112.155 63.4529 110.694C60.914 105.709 59.5923 103.351 56.4068 98.5767C54.6796 95.988 53.0222 93.4675 51.3556 90.8335C49.7358 88.274 48.6892 84.882 47.0859 82.3801C46.6998 82.3801 46.7952 82.4661 46.852 82.0804L46.642 81.795L46.2778 81.6558L45.9128 81.6886L45.8477 82.3295Z" fill="#FEFEFE"/>
<path fill-rule="evenodd" clip-rule="evenodd" d="M78.9783 97.0527C77.9336 97.5811 77.4383 98.3613 76.7925 99.1592C76.2596 99.817 75.2782 100.687 75.4249 101.343C77.2291 101.849 81.164 101.771 83.2296 101.689C83.1086 100.507 79.9762 97.4792 78.9783 97.0527Z" fill="#FEFEFE"/>
<path fill-rule="evenodd" clip-rule="evenodd" d="M86.6387 83.4319C85.7233 85.1776 87.6669 84.4382 88.7181 85.549C89.5142 86.3904 89.5839 87.9348 90.2801 88.8178C92.3521 86.7495 88.3007 82.8619 86.6378 83.4319H86.6387Z" fill="black"/>
<path fill-rule="evenodd" clip-rule="evenodd" d="M65.4229 111.005L65.4312 105.626L66.1769 105.65C65.5605 105.297 65.2752 105.162 65.1432 106.104C65.1156 106.303 65.2174 107.446 65.2092 107.826C65.1826 109.026 64.8469 110.117 65.4229 111.005Z" fill="#7B7B7B"/>
<path fill-rule="evenodd" clip-rule="evenodd" d="M79.7316 118.702C79.9619 118.385 79.9233 119.231 79.972 118.038C79.9802 117.845 79.8555 117.433 79.8105 117.257C79.8087 117.259 78.8291 117.338 79.7316 118.702Z" fill="#FEFEFE"/>
<path fill-rule="evenodd" clip-rule="evenodd" d="M99.2694 100.157C98.9575 100.401 99.1015 100.221 98.8273 100.555C98.6127 100.816 98.7053 100.771 98.5879 101.043C99.8931 101.23 98.8475 101.148 99.141 100.816L99.2263 100.766C99.2905 100.737 99.7482 100.526 99.7876 100.502C100.158 100.274 99.983 100.362 100.228 100.113C99.6528 100.369 100.144 100.285 99.6666 100.345C99.1621 100.407 99.5391 100.58 99.2685 100.157H99.2694Z" fill="#7B7B7B"/>
<path fill-rule="evenodd" clip-rule="evenodd" d="M75.0508 126.92C75.5919 127.411 75.2269 127.264 76.1735 127.205C76.3211 126.255 76.3661 126.2 75.9442 125.505L76.0845 127.086L75.0517 126.919L75.0508 126.92Z" fill="#9C9C9C"/>
<path fill-rule="evenodd" clip-rule="evenodd" d="M68.1641 90.3107C68.4163 90.5164 67.9412 90.5651 68.9905 90.5882C69.0767 90.3169 69.1629 89.9365 69.1849 89.3691L68.8602 90.347L68.1641 90.3098V90.3107Z" fill="#414141"/>
<path fill-rule="evenodd" clip-rule="evenodd" d="M45.8471 82.3295L45.9123 81.6885L46.2773 81.6557L46.6415 81.7949L46.8515 82.0804C46.7937 82.4661 46.6983 82.3801 47.0854 82.3801L46.8515 82.0804C46.9084 81.7072 47.0056 81.779 46.6415 81.7949L46.2773 81.6557C45.8086 81.3055 46.0654 81.5041 45.9123 81.6885C45.1739 81.6584 45.8315 82.3074 45.8471 82.3295Z" fill="#7B7B7B"/>
<path fill-rule="evenodd" clip-rule="evenodd" d="M52.1441 87.3785C52.0056 86.3297 52.0203 87.0461 52.3532 86.7641L51.846 86.3838C51.8873 87.3111 51.6846 86.8147 52.1441 87.3785Z" fill="#7B7B7B"/>
<path fill-rule="evenodd" clip-rule="evenodd" d="M100.528 100.713C100.912 100.288 100.869 100.912 100.768 99.8739C99.6283 99.5769 100.556 99.7569 100.176 100.011C100.94 99.9439 100.649 100.174 100.528 100.713Z" fill="#7B7B7B"/>
</g>
<defs>
<filter id="filter0_d_47_5745" x="0.757812" y="0.104004" width="158" height="158" filterUnits="userSpaceOnUse" color-interpolation-filters="sRGB">
<feFlood flood-opacity="0" result="BackgroundImageFix"/>
<feColorMatrix in="SourceAlpha" type="matrix" values="0 0 0 0 0 0 0 0 0 0 0 0 0 0 0 0 0 0 127 0" result="hardAlpha"/>
<feOffset/>
<feGaussianBlur stdDeviation="2"/>
<feComposite in2="hardAlpha" operator="out"/>
<feColorMatrix type="matrix" values="0 0 0 0 0 0 0 0 0 0 0 0 0 0 0 0 0 0 0.25 0"/>
<feBlend mode="normal" in2="BackgroundImageFix" result="effect1_dropShadow_47_5745"/>
<feBlend mode="normal" in="SourceGraphic" in2="effect1_dropShadow_47_5745" result="shape"/>
</filter>
<clipPath id="clip0_47_5745">
<rect width="70" height="97" fill="white" transform="translate(44.7578 30.4463)"/>
</clipPath>
</defs>
</svg>
