<svg width="18" height="19" viewBox="0 0 18 19" fill="none" xmlns="http://www.w3.org/2000/svg">
<path d="M11.0794 18.4401H6.31292C1.99928 18.4401 0.15625 16.5486 0.15625 12.1218V7.23016C0.15625 2.80328 1.99928 0.911865 6.31292 0.911865H7.90174C8.22745 0.911865 8.49755 1.18906 8.49755 1.52331C8.49755 1.85757 8.22745 2.13476 7.90174 2.13476H6.31292C2.6507 2.13476 1.34786 3.4718 1.34786 7.23016V12.1218C1.34786 15.8801 2.6507 17.2172 6.31292 17.2172H11.0794C14.7416 17.2172 16.0444 15.8801 16.0444 12.1218V10.4912C16.0444 10.157 16.3145 9.87977 16.6402 9.87977C16.966 9.87977 17.2361 10.157 17.2361 10.4912V12.1218C17.2361 16.5486 15.393 18.4401 11.0794 18.4401Z" fill="white"/>
<path d="M5.91453 14.3149C5.42994 14.3149 4.98507 14.1355 4.65936 13.8094C4.2701 13.4099 4.10328 12.8311 4.19066 12.2197L4.53226 9.76571C4.59581 9.29286 4.89769 8.68141 5.22339 8.34715L11.4833 1.92284C13.0642 0.30046 14.6689 0.30046 16.2498 1.92284C17.1157 2.81148 17.5049 3.71642 17.4255 4.62136C17.354 5.3551 16.9727 6.07253 16.2498 6.80627L9.98981 13.2306C9.6641 13.5648 9.0683 13.8746 8.60754 13.9399L6.21641 14.2904C6.11313 14.3149 6.00986 14.3149 5.91453 14.3149ZM12.3254 2.78702L6.06547 9.21133C5.91453 9.36623 5.73976 9.72495 5.70798 9.93692L5.36639 12.3909C5.33461 12.6273 5.38228 12.823 5.50144 12.9452C5.6206 13.0675 5.81126 13.1164 6.04164 13.0838L8.43277 12.7333C8.63932 12.7007 8.9968 12.5213 9.13979 12.3664L15.3997 5.94209C15.9161 5.41217 16.1862 4.93932 16.2259 4.49907C16.2736 3.96915 16.0035 3.40662 15.3997 2.77887C14.1287 1.47444 13.2548 1.84131 12.3254 2.78702Z" fill="white"/>
<path d="M14.9322 7.90677C14.8766 7.90677 14.821 7.89862 14.7734 7.88232C12.6841 7.27902 11.0237 5.57512 10.4359 3.43097C10.3485 3.10487 10.5312 2.77061 10.849 2.67278C11.1667 2.5831 11.4924 2.77061 11.5798 3.09671C12.0565 4.83323 13.399 6.21102 15.0911 6.70018C15.4089 6.78986 15.5916 7.13227 15.5042 7.45838C15.4327 7.73557 15.1944 7.90677 14.9322 7.90677Z" fill="white"/>
</svg>
