<svg width="23" height="23" viewBox="0 0 23 23" fill="none" xmlns="http://www.w3.org/2000/svg">
<path d="M11.7198 0.0566406C8.73233 0.0566406 8.35741 0.0697033 7.18407 0.123099C6.01301 0.176724 5.21367 0.36212 4.51425 0.634141C3.79076 0.915099 3.17705 1.29093 2.56562 1.90258C1.95374 2.51399 1.5779 3.1277 1.29603 3.85095C1.02332 4.5506 0.837689 5.35016 0.78498 6.52075C0.7325 7.69408 0.71875 8.06922 0.71875 11.0566C0.71875 14.0441 0.732042 14.4178 0.785209 15.5912C0.839064 16.7622 1.02446 17.5615 1.29626 18.261C1.57745 18.9844 1.95328 19.5981 2.56494 20.2096C3.17613 20.8214 3.78984 21.1982 4.51287 21.4791C5.21276 21.7512 6.01233 21.9366 7.18315 21.9902C8.3565 22.0436 8.73119 22.0566 11.7184 22.0566C14.7061 22.0566 15.0799 22.0436 16.2532 21.9902C17.4243 21.9366 18.2245 21.7512 18.9244 21.4791C19.6477 21.1982 20.2605 20.8214 20.8716 20.2096C21.4835 19.5981 21.8594 18.9844 22.1412 18.2612C22.4117 17.5615 22.5973 16.762 22.6523 15.5914C22.705 14.4181 22.7188 14.0441 22.7188 11.0566C22.7188 8.06922 22.705 7.69431 22.6523 6.52097C22.5973 5.34993 22.4117 4.5506 22.1412 3.85118C21.8594 3.1277 21.4835 2.51399 20.8716 1.90258C20.2598 1.2907 19.6479 0.91487 18.9237 0.634141C18.2225 0.36212 17.4227 0.176724 16.2516 0.123099C15.0783 0.0697033 14.7047 0.0566406 11.7163 0.0566406H11.7198ZM10.733 2.03893C11.0259 2.03847 11.3527 2.03893 11.7198 2.03893C14.6568 2.03893 15.0049 2.04947 16.1647 2.10218C17.2373 2.15122 17.8193 2.33043 18.2071 2.48099C18.7204 2.68037 19.0864 2.9187 19.4712 3.3037C19.8562 3.6887 20.0945 4.05537 20.2944 4.5687C20.4449 4.95599 20.6244 5.53808 20.6732 6.61058C20.7259 7.77016 20.7374 8.11849 20.7374 11.0541C20.7374 13.9897 20.7259 14.3381 20.6732 15.4977C20.6241 16.5702 20.4449 17.1522 20.2944 17.5395C20.095 18.0529 19.8562 18.4184 19.4712 18.8032C19.0862 19.1882 18.7207 19.4265 18.2071 19.6259C17.8198 19.7771 17.2373 19.9559 16.1647 20.0049C15.0051 20.0576 14.6568 20.0691 11.7198 20.0691C8.78252 20.0691 8.43441 20.0576 7.27482 20.0049C6.20231 19.9554 5.62022 19.7762 5.23223 19.6256C4.7189 19.4263 4.35223 19.1879 3.96722 18.8029C3.58222 18.4179 3.34388 18.0522 3.14405 17.5386C2.99348 17.1513 2.81404 16.5692 2.76523 15.4967C2.71252 14.3372 2.70198 13.9888 2.70198 11.0514C2.70198 8.11391 2.71252 7.76741 2.76523 6.60783C2.81427 5.53533 2.99348 4.95324 3.14405 4.56549C3.34342 4.05216 3.58222 3.68549 3.96722 3.30049C4.35223 2.91549 4.7189 2.67716 5.23223 2.47733C5.61999 2.32608 6.20231 2.14733 7.27482 2.09806C8.28958 2.05222 8.68283 2.03847 10.733 2.03618V2.03893ZM17.5916 3.86539C16.8628 3.86539 16.2715 4.45595 16.2715 5.18493C16.2715 5.91368 16.8628 6.50493 17.5916 6.50493C18.3203 6.50493 18.9116 5.91368 18.9116 5.18493C18.9116 4.45618 18.3203 3.86493 17.5916 3.86493V3.86539ZM11.7198 5.40768C8.6001 5.40768 6.07076 7.937 6.07076 11.0566C6.07076 14.1763 8.6001 16.7045 11.7198 16.7045C14.8395 16.7045 17.3679 14.1763 17.3679 11.0566C17.3679 7.937 14.8395 5.40768 11.7198 5.40768ZM11.7198 7.38997C13.7447 7.38997 15.3865 9.0315 15.3865 11.0566C15.3865 13.0816 13.7447 14.7233 11.7198 14.7233C9.69461 14.7233 8.05308 13.0816 8.05308 11.0566C8.05308 9.0315 9.69461 7.38997 11.7198 7.38997Z" fill="white"/>
</svg>
