<svg width="42" height="43" viewBox="0 0 42 43" fill="none" xmlns="http://www.w3.org/2000/svg">
<rect x="0.316406" y="0.830566" width="41.2018" height="41.5055" rx="20.6009" fill="white"/>
<path d="M20.9181 12.0835C15.6712 12.0835 11.418 16.3367 11.418 21.5835C11.418 26.8303 15.6712 31.0835 20.9181 31.0835C26.165 31.0835 30.4182 26.8303 30.4182 21.5835C30.4182 16.3367 26.165 12.0835 20.9181 12.0835ZM24.0704 25.7819C23.921 25.9305 23.7643 26.0864 23.6371 26.214C23.5226 26.3289 23.4418 26.4706 23.4008 26.6242C23.3429 26.8411 23.2962 27.0602 23.2181 27.2705L22.5519 29.0651C22.0248 29.18 21.4793 29.2448 20.9181 29.2448V28.196C20.9828 27.7125 20.6254 26.807 20.0512 26.2327C19.8214 26.0029 19.6923 25.6911 19.6923 25.3659V24.1397C19.6923 23.6938 19.4521 23.2839 19.0617 23.0683C18.5113 22.7637 17.7283 22.3381 17.192 22.0681C16.7522 21.8467 16.3454 21.5647 15.9796 21.2349L15.9489 21.2073C15.6873 20.9712 15.455 20.7044 15.2571 20.4129C14.8978 19.8854 14.3124 19.0177 13.9321 18.4539C14.7162 16.7109 16.1293 15.3112 17.8853 14.5508L18.8051 15.0109C19.2127 15.2147 19.6923 14.9186 19.6923 14.4627V14.0298C19.9984 13.9804 20.3098 13.949 20.6266 13.9371L21.7107 15.0212C21.9501 15.2606 21.9501 15.6487 21.7107 15.8881L21.531 16.0674L21.1349 16.4635C21.0154 16.583 21.0154 16.7772 21.1349 16.8967L21.3146 17.0764C21.4341 17.1959 21.4341 17.3901 21.3146 17.5096L21.0081 17.8161C20.9506 17.8735 20.8726 17.9057 20.7913 17.9057H20.4469C20.3672 17.9057 20.2906 17.9367 20.2332 17.9926L19.8532 18.3623C19.8066 18.4077 19.7756 18.4667 19.7647 18.5308C19.7539 18.5949 19.7636 18.6608 19.7926 18.7189L20.3899 19.9137C20.4917 20.1175 20.3435 20.3573 20.116 20.3573H19.8999C19.826 20.3573 19.7547 20.3305 19.6992 20.2822L19.3437 19.9735C19.2632 19.9037 19.166 19.856 19.0616 19.8352C18.9571 19.8144 18.8491 19.8211 18.748 19.8547L17.554 20.2527C17.4628 20.2831 17.3835 20.3414 17.3274 20.4194C17.2712 20.4974 17.241 20.591 17.241 20.6871C17.241 20.8607 17.3391 21.0189 17.4942 21.0966L17.9187 21.3088C18.2791 21.4893 18.6768 21.5831 19.0798 21.5831C19.4827 21.5831 19.9451 22.6285 20.3056 22.8089H22.8626C23.1878 22.8089 23.4992 22.938 23.7295 23.1679L24.2539 23.6923C24.473 23.9114 24.596 24.2086 24.596 24.5185C24.5959 24.7534 24.5494 24.9858 24.4592 25.2026C24.369 25.4194 24.2369 25.6163 24.0704 25.7819ZM27.392 22.2826C27.1702 22.227 26.9767 22.0911 26.8499 21.9007L26.1612 20.8675C26.0604 20.7166 26.0066 20.5392 26.0066 20.3577C26.0066 20.1762 26.0604 19.9988 26.1612 19.8478L26.9116 18.7224C27.0005 18.5895 27.1223 18.4814 27.2656 18.4102L27.7628 18.1616C28.2807 19.1928 28.5795 20.3527 28.5795 21.5835C28.5795 21.9156 28.5512 22.2408 28.5098 22.5618L27.392 22.2826Z" fill="black"/>
</svg>
