<svg width="26" height="27" viewBox="0 0 26 27" fill="none" xmlns="http://www.w3.org/2000/svg">
<path d="M23.6229 8.29777L15.5636 1.87049C14.8563 1.3063 13.9858 1 13.0897 1C12.1936 1 11.3231 1.3063 10.6158 1.87049L2.55501 8.29777C2.07058 8.68397 1.67865 9.17861 1.40915 9.74392C1.13965 10.3092 0.999721 10.9302 1 11.5593V22.7157C1 23.5377 1.31847 24.3259 1.88518 24.907C2.45202 25.4883 3.22079 25.8147 4.02243 25.8147H22.157C22.9587 25.8147 23.7274 25.4883 24.2941 24.907C24.861 24.3259 25.1794 23.5377 25.1794 22.7157V11.5593C25.1794 10.2842 24.6052 9.08024 23.6229 8.29777Z" stroke="white" stroke-width="1.5" stroke-linecap="round" stroke-linejoin="round"/>
<path d="M19.1366 18.043C15.7968 20.1084 10.3837 20.1084 7.04688 18.043" stroke="white" stroke-width="1.5" stroke-linecap="round" stroke-linejoin="round"/>
</svg>
