<svg width="113" height="113" viewBox="0 0 113 113" fill="none" xmlns="http://www.w3.org/2000/svg">
<circle cx="56.8555" cy="56.5933" r="54" fill="url(#paint0_linear_132_717)" stroke="#E0E0E0" stroke-width="4"/>
<path d="M47.7188 81.7085V83.9917L51.606 89.8254C52.0283 90.459 52.7419 90.8414 53.5067 90.8414H60.1966C60.9615 90.8414 61.675 90.459 62.0974 89.8254L65.9846 83.9917V81.7085H47.7188Z" fill="url(#paint1_radial_132_717)"/>
<path d="M47.7188 69.4365H65.9846V83.9921H47.7188V69.4365Z" fill="url(#paint2_linear_132_717)"/>
<path opacity="0.2" d="M64.2722 71.1489V83.4727L60.6704 88.8725C60.5619 89.0323 60.385 89.1294 60.1966 89.1294H53.5067C53.3127 89.1294 53.1357 89.0323 53.033 88.8725L49.4312 83.4727V71.1489H64.2722ZM65.9846 69.4365H47.7188V83.9921L51.606 89.8258C52.0283 90.4594 52.7419 90.8418 53.5067 90.8418H60.1966C60.9615 90.8418 61.675 90.4594 62.0974 89.8258L65.9846 83.9921V69.4365Z" fill="#424242"/>
<path d="M65.8659 74.8591L48.2394 78.421C47.6058 78.5523 46.9779 78.1356 46.8466 77.4963L46.7781 77.1424C46.6468 76.5088 47.0635 75.8809 47.7028 75.7496L65.3293 72.1878C65.9629 72.0565 66.5908 72.4732 66.7221 73.1125L66.7906 73.4664C66.9162 74.1057 66.5052 74.7336 65.8659 74.8591Z" fill="#BBDEFB"/>
<path d="M65.8659 80.4075L48.2394 83.9693C47.6058 84.1006 46.9779 83.6839 46.8466 83.0446L46.7781 82.6907C46.6468 82.0571 47.0635 81.4292 47.7028 81.2979L65.3293 77.7361C65.9629 77.6048 66.5908 78.0215 66.7221 78.6608L66.7906 79.0147C66.9162 79.654 66.5052 80.2819 65.8659 80.4075Z" fill="#90CAF9"/>
<path d="M77.4028 42.8938C77.4028 31.5461 68.2014 22.3447 56.8538 22.3447C45.5061 22.3447 36.3047 31.5461 36.3047 42.8938C36.3047 47.8941 38.2283 52.3578 41.0538 56.0338C43.651 59.413 45.0837 62.9634 44.7698 65.5377C44.0106 71.7538 47.7665 72.5758 47.7665 72.5758H65.941C65.941 72.5758 69.6969 71.7538 68.9378 65.5377C68.6238 62.9634 70.0565 59.413 72.6537 56.0338C75.4792 52.3578 77.4028 47.8941 77.4028 42.8938Z" fill="url(#paint3_radial_132_717)"/>
<mask id="mask0_132_717" style="mask-type:luminance" maskUnits="userSpaceOnUse" x="36" y="22" width="42" height="51">
<path d="M77.4028 42.8938C77.4028 31.5461 68.2014 22.3447 56.8538 22.3447C45.5061 22.3447 36.3047 31.5461 36.3047 42.8938C36.3047 47.8941 38.2283 52.3578 41.0538 56.0338C43.651 59.413 45.0837 62.9634 44.7698 65.5377C44.0106 71.7538 47.7665 72.5758 47.7665 72.5758H65.941C65.941 72.5758 69.6969 71.7538 68.9378 65.5377C68.6238 62.9634 70.0565 59.413 72.6537 56.0338C75.4792 52.3578 77.4028 47.8941 77.4028 42.8938Z" fill="white"/>
</mask>
<g mask="url(#mask0_132_717)">
<path d="M60.1535 73.7402H60.0793C59.6055 73.7002 59.2573 73.2836 59.2973 72.8155L59.577 69.4763C60.4903 62.4553 63.0132 54.0759 64.5144 49.6065C63.6697 49.2183 62.7906 48.5048 62.1228 47.62C61.6775 47.0264 61.3579 46.4099 61.1752 45.7877C59.7082 45.6793 58.4411 45.177 57.4307 44.4749C56.4775 45.3311 55.1132 46.0503 53.1725 46.2387C52.6873 46.2844 52.2307 46.3072 51.8026 46.2958C51.4829 47.0835 51.0491 47.9511 50.4612 48.9158C50.113 49.4923 49.6221 49.9375 49.0284 50.2343L55.4843 72.102C55.6156 72.5529 55.3587 73.0324 54.9078 73.1637C54.4568 73.295 53.9773 73.0381 53.8461 72.5872L47.3617 50.6396C47.2133 50.6453 47.0534 50.6453 46.8993 50.6339C45.0499 50.5312 43.1834 49.4466 42.5612 48.1052C42.1787 47.2833 42.2701 46.4328 42.8123 45.7193C43.2462 45.1427 43.8912 44.7774 44.6275 44.6747C45.3753 44.5776 46.1459 44.7774 46.7338 45.2284C48.0181 46.2216 48.3606 47.797 48.4234 48.1737L48.5318 48.5448C48.7088 48.4135 48.8686 48.2479 48.9999 48.031C49.3367 47.4773 49.7191 46.7867 50.0445 46.056C49.1711 45.8106 48.4748 45.3882 47.9667 44.7774C47.1505 43.8013 46.9849 42.3914 47.5272 41.0957C47.767 40.5306 48.3663 39.8 49.2853 39.6173C50.0216 39.4689 50.7751 39.7315 51.403 40.348C52.1907 41.1243 52.8072 42.4257 52.3448 44.5776C52.556 44.5719 52.7786 44.5548 53.007 44.532C54.4054 44.395 55.4158 43.9212 56.1407 43.3276C55.6498 42.7739 55.2845 42.186 55.0505 41.6094C54.4854 40.2053 54.6623 38.8353 55.5299 37.9449C56.2434 37.2085 56.9227 37.1172 57.3622 37.1686C58.247 37.2713 58.7892 37.9734 59.0347 38.3844C59.5028 39.1664 59.674 40.5363 59.4057 41.3754C59.263 41.8206 59.0062 42.4771 58.5495 43.162C59.2345 43.6016 60.0621 43.9269 61.0097 44.0354C61.0439 43.7328 61.1124 43.436 61.2095 43.1392C61.9801 40.9073 63.2701 40.3365 63.9722 40.1995C64.7599 40.0397 65.559 40.2566 65.9985 40.7532C66.5237 41.3412 66.8034 42.5741 66.2782 43.6929C65.8958 44.5206 65.0053 45.4624 62.9733 45.725C63.1274 46.0732 63.3215 46.3643 63.4813 46.5755C63.9893 47.249 64.5887 47.7057 65.0624 47.9625C65.2165 47.5287 65.3421 47.1805 65.4392 46.9179C66.3696 44.4692 68.2133 43.3961 69.5547 43.6073C70.3709 43.7328 71.2728 44.3893 71.3584 45.862C71.4041 46.6725 71.1358 47.426 70.5821 48.0481C69.3435 49.4352 67.0831 49.7948 66.204 49.8861C64.7428 54.2072 62.1741 62.6437 61.2608 69.6475L60.9812 72.9468C60.964 73.4034 60.593 73.7402 60.1535 73.7402ZM45.01 46.3586C44.9586 46.3586 44.9072 46.3643 44.8558 46.37C44.5761 46.4099 44.3364 46.5412 44.1823 46.7467C44.0225 46.9579 44.0053 47.1406 44.1195 47.3803C44.4277 48.0367 45.5808 48.7902 46.8537 48.9101L46.7623 48.6018C46.7509 48.5562 46.7395 48.5162 46.7338 48.4705C46.7338 48.4648 46.5511 47.249 45.6835 46.5812C45.4951 46.4385 45.2554 46.3586 45.01 46.3586ZM69.2179 45.3026C68.6357 45.3026 67.6254 46.0332 67.0545 47.5344C66.9975 47.6828 66.9347 47.8598 66.8605 48.0653C67.7681 47.8769 68.7898 47.5059 69.3264 46.9122C69.5832 46.6268 69.6917 46.33 69.6688 45.9704C69.646 45.5651 69.5261 45.3425 69.3149 45.314C69.2807 45.3083 69.2522 45.3026 69.2179 45.3026ZM49.6906 41.2898C49.6677 41.2898 49.6449 41.2898 49.6221 41.2955C49.4052 41.3412 49.1883 41.5695 49.1084 41.7578C48.8115 42.4599 48.88 43.1963 49.2853 43.6758C49.5821 44.0297 50.0331 44.2865 50.6267 44.4292C50.9121 43.3104 50.8893 42.243 50.2043 41.5695C50.0102 41.3811 49.839 41.2898 49.6906 41.2898ZM64.503 41.872C64.4231 41.872 64.3204 41.8834 64.2062 41.9234C63.6582 42.1003 63.1731 42.7396 62.8363 43.7157C62.7963 43.8242 62.7678 43.9326 62.7507 44.0411C63.7667 43.9155 64.4517 43.5673 64.7256 43.0193C64.9882 42.5056 64.8056 41.9976 64.7371 41.9063C64.7199 41.9005 64.6343 41.872 64.503 41.872ZM57.151 38.8753C57.0997 38.8753 56.957 38.9324 56.7515 39.1435C56.2035 39.7086 56.4832 40.6105 56.6316 40.9758C56.7743 41.324 56.9855 41.6779 57.2538 42.0204C57.4992 41.6094 57.659 41.2099 57.7675 40.8731C57.8874 40.4907 57.7789 39.6402 57.5563 39.2748C57.4022 39.018 57.2309 38.8867 57.1567 38.881C57.1567 38.8753 57.1567 38.8753 57.151 38.8753Z" fill="#FFD54F"/>
</g>
<mask id="mask1_132_717" style="mask-type:luminance" maskUnits="userSpaceOnUse" x="36" y="22" width="42" height="51">
<path d="M77.4028 42.8938C77.4028 31.5461 68.2014 22.3447 56.8538 22.3447C45.5061 22.3447 36.3047 31.5461 36.3047 42.8938C36.3047 47.8941 38.2283 52.3578 41.0538 56.0338C43.651 59.413 45.0837 62.9634 44.7698 65.5377C44.0106 71.7538 47.7665 72.5758 47.7665 72.5758H65.941C65.941 72.5758 69.6969 71.7538 68.9378 65.5377C68.6238 62.9634 70.0565 59.413 72.6537 56.0338C75.4792 52.3578 77.4028 47.8941 77.4028 42.8938Z" fill="white"/>
</mask>
<g mask="url(#mask1_132_717)">
<path d="M60.1535 73.7402H60.0793C59.6055 73.7002 59.2573 73.2836 59.2973 72.8155L59.577 69.4763C60.4903 62.4553 63.0132 54.0759 64.5144 49.6065C63.6697 49.2183 62.7906 48.5048 62.1228 47.62C61.6775 47.0264 61.3579 46.4099 61.1752 45.7877C59.7082 45.6793 58.4411 45.177 57.4307 44.4749C56.4775 45.3311 55.1132 46.0503 53.1725 46.2387C52.6873 46.2844 52.2307 46.3072 51.8026 46.2958C51.4829 47.0835 51.0491 47.9511 50.4612 48.9158C50.113 49.4923 49.6221 49.9375 49.0284 50.2343L55.4843 72.102C55.6156 72.5529 55.3587 73.0324 54.9078 73.1637C54.4568 73.295 53.9773 73.0381 53.8461 72.5872L47.3617 50.6396C47.2133 50.6453 47.0534 50.6453 46.8993 50.6339C45.0499 50.5312 43.1834 49.4466 42.5612 48.1052C42.1787 47.2833 42.2701 46.4328 42.8123 45.7193C43.2462 45.1427 43.8912 44.7774 44.6275 44.6747C45.3753 44.5776 46.1459 44.7774 46.7338 45.2284C48.0181 46.2216 48.3606 47.797 48.4234 48.1737L48.5318 48.5448C48.7088 48.4135 48.8686 48.2479 48.9999 48.031C49.3367 47.4773 49.7191 46.7867 50.0445 46.056C49.1711 45.8106 48.4748 45.3882 47.9667 44.7774C47.1505 43.8013 46.9849 42.3914 47.5272 41.0957C47.767 40.5306 48.3663 39.8 49.2853 39.6173C50.0216 39.4689 50.7751 39.7315 51.403 40.348C52.1907 41.1243 52.8072 42.4257 52.3448 44.5776C52.556 44.5719 52.7786 44.5548 53.007 44.532C54.4054 44.395 55.4158 43.9212 56.1407 43.3276C55.6498 42.7739 55.2845 42.186 55.0505 41.6094C54.4854 40.2053 54.6623 38.8353 55.5299 37.9449C56.2434 37.2085 56.9227 37.1172 57.3622 37.1686C58.247 37.2713 58.7892 37.9734 59.0347 38.3844C59.5028 39.1664 59.674 40.5363 59.4057 41.3754C59.263 41.8206 59.0062 42.4771 58.5495 43.162C59.2345 43.6016 60.0621 43.9269 61.0097 44.0354C61.0439 43.7328 61.1124 43.436 61.2095 43.1392C61.9801 40.9073 63.2701 40.3365 63.9722 40.1995C64.7599 40.0397 65.559 40.2566 65.9985 40.7532C66.5237 41.3412 66.8034 42.5741 66.2782 43.6929C65.8958 44.5206 65.0053 45.4624 62.9733 45.725C63.1274 46.0732 63.3215 46.3643 63.4813 46.5755C63.9893 47.249 64.5887 47.7057 65.0624 47.9625C65.2165 47.5287 65.3421 47.1805 65.4392 46.9179C66.3696 44.4692 68.2133 43.3961 69.5547 43.6073C70.3709 43.7328 71.2728 44.3893 71.3584 45.862C71.4041 46.6725 71.1358 47.426 70.5821 48.0481C69.3435 49.4352 67.0831 49.7948 66.204 49.8861C64.7428 54.2072 62.1741 62.6437 61.2608 69.6475L60.9812 72.9468C60.964 73.4034 60.593 73.7402 60.1535 73.7402ZM45.01 46.3586C44.9586 46.3586 44.9072 46.3643 44.8558 46.37C44.5761 46.4099 44.3364 46.5412 44.1823 46.7467C44.0225 46.9579 44.0053 47.1406 44.1195 47.3803C44.4277 48.0367 45.5808 48.7902 46.8537 48.9101L46.7623 48.6018C46.7509 48.5562 46.7395 48.5162 46.7338 48.4705C46.7338 48.4648 46.5511 47.249 45.6835 46.5812C45.4951 46.4385 45.2554 46.3586 45.01 46.3586ZM69.2179 45.3026C68.6357 45.3026 67.6254 46.0332 67.0545 47.5344C66.9975 47.6828 66.9347 47.8598 66.8605 48.0653C67.7681 47.8769 68.7898 47.5059 69.3264 46.9122C69.5832 46.6268 69.6917 46.33 69.6688 45.9704C69.646 45.5651 69.5261 45.3425 69.3149 45.314C69.2807 45.3083 69.2522 45.3026 69.2179 45.3026ZM49.6906 41.2898C49.6677 41.2898 49.6449 41.2898 49.6221 41.2955C49.4052 41.3412 49.1883 41.5695 49.1084 41.7578C48.8115 42.4599 48.88 43.1963 49.2853 43.6758C49.5821 44.0297 50.0331 44.2865 50.6267 44.4292C50.9121 43.3104 50.8893 42.243 50.2043 41.5695C50.0102 41.3811 49.839 41.2898 49.6906 41.2898ZM64.503 41.872C64.4231 41.872 64.3204 41.8834 64.2062 41.9234C63.6582 42.1003 63.1731 42.7396 62.8363 43.7157C62.7963 43.8242 62.7678 43.9326 62.7507 44.0411C63.7667 43.9155 64.4517 43.5673 64.7256 43.0193C64.9882 42.5056 64.8056 41.9976 64.7371 41.9063C64.7199 41.9005 64.6343 41.872 64.503 41.872ZM57.151 38.8753C57.0997 38.8753 56.957 38.9324 56.7515 39.1435C56.2035 39.7086 56.4832 40.6105 56.6316 40.9758C56.7743 41.324 56.9855 41.6779 57.2538 42.0204C57.4992 41.6094 57.659 41.2099 57.7675 40.8731C57.8874 40.4907 57.7789 39.6402 57.5563 39.2748C57.4022 39.018 57.2309 38.8867 57.1567 38.881C57.1567 38.8753 57.1567 38.8753 57.151 38.8753Z" fill="#FDD835"/>
<path opacity="0.2" d="M57.1555 37.1631C57.2297 37.1631 57.2925 37.1688 57.361 37.1745C58.2457 37.2773 58.788 37.9794 59.0334 38.3903C59.5015 39.1723 59.6727 40.5423 59.4045 41.3814C59.2618 41.8266 59.0049 42.483 58.5482 43.168C59.2332 43.6075 60.0609 43.9329 61.0084 44.0413C61.0427 43.7388 61.1112 43.442 61.2082 43.1452C61.9788 40.9133 63.2688 40.3425 63.9709 40.2055C64.1422 40.1713 64.3134 40.1541 64.4846 40.1541C65.0897 40.1541 65.6548 40.371 65.9973 40.7592C66.5224 41.3471 66.8021 42.5801 66.277 43.6988C65.8945 44.5265 65.0041 45.4684 62.972 45.7309C63.1261 46.0791 63.3202 46.3702 63.48 46.5814C63.988 47.255 64.5874 47.7116 65.0612 47.9685C65.2153 47.5347 65.3409 47.1865 65.4379 46.9239C66.2884 44.6749 67.9152 43.5847 69.2166 43.5847C69.3308 43.5847 69.445 43.5904 69.5534 43.6075C70.3697 43.7331 71.2715 44.3895 71.3572 45.8622C71.4028 46.6728 71.1346 47.4262 70.5809 48.0484C69.3422 49.4355 67.0818 49.7951 66.2028 49.8864C64.7415 54.2074 62.1729 62.644 61.2596 69.6478L60.9799 72.947C60.9399 73.3923 60.5689 73.729 60.1294 73.729H60.0552C59.5814 73.6891 59.2332 73.2724 59.2732 72.8043L59.5529 69.4651C60.4662 62.4442 62.9891 54.0647 64.4903 49.5953C63.6456 49.2071 62.7665 48.4936 62.0987 47.6089C61.6534 47.0152 61.3338 46.3988 61.1511 45.7766C59.707 45.6795 58.4398 45.1772 57.4295 44.4751C56.4762 45.3314 55.112 46.0506 53.1712 46.2389C52.7717 46.2789 52.3949 46.296 52.0353 46.296H51.8013C51.4816 47.0837 51.0478 47.9514 50.4599 48.916C50.1117 49.4925 49.6208 49.9378 49.0272 50.2346L55.483 72.1022C55.6143 72.5532 55.3574 73.0326 54.9065 73.1639C54.8266 73.1868 54.7467 73.1982 54.661 73.1982C54.29 73.1982 53.9475 72.9584 53.8391 72.5817L47.3604 50.6399C47.2976 50.6399 47.2348 50.6456 47.172 50.6456C47.0807 50.6456 46.9894 50.6456 46.8924 50.6399C45.0429 50.5371 43.1764 49.4526 42.5542 48.1112C42.1718 47.2892 42.2631 46.4387 42.8054 45.7252C43.2392 45.1487 43.8842 44.7834 44.6205 44.6806C44.7461 44.6635 44.8717 44.6578 44.9973 44.6578C45.6195 44.6578 46.2359 44.8633 46.7268 45.24C48.0111 46.2332 48.3536 47.8087 48.4164 48.1854L48.5249 48.5564C48.7018 48.4251 48.8616 48.2596 48.9929 48.0427C49.3297 47.489 49.7121 46.7983 50.0375 46.0677C49.1642 45.8223 48.4678 45.3999 47.9598 44.7891C47.1435 43.813 46.978 42.4031 47.5202 41.1074C47.76 40.5423 48.3593 39.8116 49.2783 39.629C49.4153 39.6004 49.5466 39.589 49.6836 39.589C50.2887 39.589 50.8823 39.8573 51.396 40.3596C52.1837 41.1359 52.8002 42.4374 52.3379 44.5893C52.5491 44.5836 52.7717 44.5665 53 44.5436C54.3985 44.4066 55.4088 43.9329 56.1337 43.3392C55.6428 42.7856 55.2775 42.1976 55.0435 41.6211C54.4784 40.2169 54.6553 38.847 55.523 37.9565C56.1337 37.3172 56.7217 37.1631 57.1555 37.1631ZM57.2582 42.0207C57.5037 41.6097 57.6635 41.2101 57.7719 40.8733C57.8918 40.4909 57.7834 39.6404 57.5607 39.2751C57.4066 39.0182 57.2354 38.8869 57.1612 38.8812H57.1555C57.1041 38.8812 56.9614 38.9383 56.7559 39.1495C56.2079 39.7146 56.4876 40.6165 56.636 40.9818C56.773 41.3186 56.9842 41.6782 57.2582 42.0207ZM50.6254 44.4295C50.9108 43.3107 50.888 42.2433 50.203 41.5697C50.0147 41.3814 49.8434 41.29 49.6893 41.29C49.6665 41.29 49.6436 41.29 49.6208 41.2957C49.4039 41.3414 49.187 41.5697 49.1071 41.7581C48.8103 42.4602 48.8788 43.1965 49.284 43.676C49.5809 44.0299 50.0318 44.2868 50.6254 44.4295ZM62.7437 44.0413C63.7597 43.9158 64.4447 43.5676 64.7187 43.0196C64.9812 42.5059 64.7986 41.9978 64.7301 41.9065C64.7244 41.9065 64.6388 41.878 64.5075 41.878C64.4276 41.878 64.3248 41.8894 64.2107 41.9293C63.6627 42.1063 63.1775 42.7456 62.8407 43.7217C62.7893 43.8244 62.7608 43.9329 62.7437 44.0413ZM66.8535 48.0712C67.7611 47.8829 68.7828 47.5118 69.3194 46.9182C69.5762 46.6328 69.6847 46.336 69.6619 45.9764C69.639 45.5711 69.5192 45.3485 69.308 45.3199C69.2794 45.3142 69.2452 45.3142 69.2166 45.3142C68.6344 45.3142 67.6241 46.0449 67.0533 47.5461C66.9962 47.6888 66.9334 47.8657 66.8535 48.0712ZM46.8524 48.916L46.7611 48.6078C46.7497 48.5621 46.7382 48.5222 46.7325 48.4765C46.7325 48.4708 46.5499 47.255 45.6822 46.5871C45.4939 46.4387 45.2541 46.3645 45.003 46.3645C44.9516 46.3645 44.9002 46.3702 44.8489 46.3759C44.5692 46.4159 44.3294 46.5472 44.1753 46.7527C44.0155 46.9639 43.9984 47.1465 44.1125 47.3863C44.4208 48.0427 45.5795 48.7962 46.8524 48.916ZM57.1555 36.0215C56.539 36.0215 55.6143 36.2156 54.7067 37.1517C53.5137 38.3789 53.2454 40.2055 53.9875 42.0378C54.1188 42.3632 54.2843 42.6885 54.4784 43.0025C54.2215 43.1166 53.9418 43.2022 53.645 43.2707C53.6735 41.4213 52.9258 40.2398 52.2066 39.532C51.4759 38.8127 50.6026 38.4303 49.6893 38.4303C49.4781 38.4303 49.2669 38.4531 49.0614 38.4931C47.7086 38.7671 46.841 39.7831 46.4757 40.645C46.0533 41.6496 45.9676 42.7114 46.1903 43.6817C45.8078 43.5619 45.4083 43.5048 45.003 43.5048C44.826 43.5048 44.6491 43.5162 44.4778 43.539C43.439 43.676 42.5257 44.2069 41.9035 45.0231C41.1044 46.0791 40.9674 47.3748 41.5268 48.5793C42.2859 50.2175 44.3408 51.5075 46.4985 51.7415L52.7488 72.9014C53 73.7462 53.7877 74.3341 54.6668 74.3341C54.8551 74.3341 55.0492 74.3056 55.2319 74.2542C55.7456 74.1058 56.168 73.7633 56.4191 73.2952C56.676 72.8272 56.7331 72.2849 56.579 71.7769L50.3629 50.7255C50.7853 50.3887 51.1506 49.972 51.436 49.504C51.8698 48.7847 52.2465 48.0884 52.5548 47.4262C52.7888 47.4148 53.0342 47.3977 53.2797 47.3748C54.9122 47.215 56.3335 46.7127 57.5151 45.8679C58.3941 46.3531 59.3474 46.6785 60.3463 46.8383C60.5689 47.3406 60.8543 47.8315 61.2139 48.3053C61.7505 49.0188 62.424 49.6524 63.1375 50.1319C61.8475 54.0818 59.3702 62.2387 58.4455 69.3281L58.4398 69.3509V69.3795L58.1601 72.7187C58.0688 73.8147 58.885 74.785 59.981 74.8764C60.0495 74.8821 60.1008 74.8821 60.1522 74.8821C61.1797 74.8821 62.053 74.0772 62.1443 73.0555L62.4183 69.779C63.343 62.6896 65.9916 54.2245 67.0818 50.931C68.3205 50.7198 70.2384 50.1775 71.4485 48.819C72.2077 47.9685 72.5787 46.9239 72.5102 45.8051C72.3846 43.6532 70.9405 42.6771 69.7418 42.4887C69.5762 42.4659 69.405 42.4488 69.2338 42.4488C68.7486 42.4488 68.2234 42.5572 67.6926 42.7856C67.7839 41.6668 67.4129 40.6222 66.8592 40C66.2998 39.3778 65.4379 39.0182 64.4903 39.0182C64.2449 39.0182 63.9937 39.0411 63.7483 39.0924C62.8179 39.2808 61.1226 40 60.1579 42.6942C60.1465 42.6885 60.1294 42.6828 60.118 42.6828C60.2892 42.3175 60.4034 41.9864 60.489 41.7296C60.8486 40.5822 60.6374 38.8641 60.0095 37.8081C59.6556 37.2202 58.8622 36.2041 57.4923 36.0443C57.3781 36.0272 57.2639 36.0215 57.1555 36.0215Z" fill="#FFFF8D"/>
</g>
<path opacity="0.2" d="M56.8538 24.0571C67.2425 24.0571 75.6904 32.5051 75.6904 42.8938C75.6904 47.0664 74.1721 51.2504 71.2952 54.9892C68.3498 58.8193 66.8714 62.7408 67.2368 65.7432C67.7162 69.6418 66.1808 70.6408 65.667 70.8634H48.0405C47.5268 70.6408 45.9913 69.6475 46.4708 65.7432C46.8361 62.7408 45.3577 58.8193 42.4123 54.9892C39.5355 51.2504 38.0171 47.0664 38.0171 42.8938C38.0171 32.5051 46.4651 24.0571 56.8538 24.0571ZM56.8538 22.3447C45.5061 22.3447 36.3047 31.5461 36.3047 42.8938C36.3047 47.8941 38.2283 52.3578 41.0538 56.0338C43.651 59.413 45.0837 62.9634 44.7698 65.5377C44.0106 71.7538 47.7665 72.5758 47.7665 72.5758H65.941C65.941 72.5758 69.6969 71.7538 68.9378 65.5377C68.6238 62.9634 70.0565 59.413 72.6537 56.0338C75.4792 52.3578 77.4028 47.8941 77.4028 42.8938C77.4028 31.5461 68.2014 22.3447 56.8538 22.3447Z" fill="#424242"/>
<defs>
<linearGradient id="paint0_linear_132_717" x1="56.8555" y1="0.593262" x2="56.8555" y2="112.593" gradientUnits="userSpaceOnUse">
<stop stop-color="#56477D"/>
<stop offset="1" stop-color="#342959"/>
</linearGradient>
<radialGradient id="paint1_radial_132_717" cx="0" cy="0" r="1" gradientUnits="userSpaceOnUse" gradientTransform="translate(56.925 83.849) rotate(90) scale(7.64654 13.5565)">
<stop stop-color="#1E88E5"/>
<stop offset="0.9869" stop-color="#0D47A1"/>
</radialGradient>
<linearGradient id="paint2_linear_132_717" x1="56.8517" y1="69.8646" x2="56.8517" y2="84.7684" gradientUnits="userSpaceOnUse">
<stop stop-color="#90CAF9"/>
<stop offset="0.1981" stop-color="#88C6F9"/>
<stop offset="0.5085" stop-color="#72BCF7"/>
<stop offset="0.8905" stop-color="#4DAAF6"/>
<stop offset="0.9957" stop-color="#42A5F5"/>
</linearGradient>
<radialGradient id="paint3_radial_132_717" cx="0" cy="0" r="1" gradientUnits="userSpaceOnUse" gradientTransform="translate(57.0678 22.9869) scale(52.0171 52.0171)">
<stop stop-color="#FFF59D"/>
<stop offset="0.1485" stop-color="#FFF599"/>
<stop offset="0.3111" stop-color="#FFF38B"/>
<stop offset="0.4772" stop-color="#FFF176"/>
<stop offset="0.7791" stop-color="#FFED51"/>
<stop offset="0.9957" stop-color="#FFEB3B"/>
</radialGradient>
</defs>
</svg>
