<svg width="48" height="47" viewBox="0 0 48 47" fill="none" xmlns="http://www.w3.org/2000/svg">
<path d="M24.5333 0H23.4667C10.5064 0 0 10.5213 0 23.5C0 36.4787 10.5064 47 23.4667 47H24.5333C37.4936 47 48 36.4787 48 23.5C48 10.5213 37.4936 0 24.5333 0Z" fill="white"/>
<path d="M34.6229 18.2978L26.5636 11.8705C25.8563 11.3063 24.9858 11 24.0897 11C23.1936 11 22.3231 11.3063 21.6158 11.8705L13.555 18.2978C13.0706 18.684 12.6786 19.1786 12.4091 19.7439C12.1396 20.3092 11.9997 20.9302 12 21.5593V32.7157C12 33.5377 12.3185 34.3259 12.8852 34.907C13.452 35.4883 14.2208 35.8147 15.0224 35.8147H33.157C33.9587 35.8147 34.7274 35.4883 35.2941 34.907C35.861 34.3259 36.1794 33.5377 36.1794 32.7157V21.5593C36.1794 20.2842 35.6052 19.0802 34.6229 18.2978Z" stroke="#FC664A" stroke-width="1.5" stroke-linecap="round" stroke-linejoin="round"/>
<path d="M30.1356 28.0434C26.7958 30.1088 21.3827 30.1088 18.0459 28.0434" stroke="#FC664A" stroke-width="1.5" stroke-linecap="round" stroke-linejoin="round"/>
</svg>
