<svg width="23" height="23" viewBox="0 0 23 23" fill="none" xmlns="http://www.w3.org/2000/svg">
<mask id="mask0_47_6576" style="mask-type:alpha" maskUnits="userSpaceOnUse" x="0" y="0" width="23" height="23">
<rect x="0.511719" y="0.958008" width="22" height="22" fill="#D9D9D9"/>
</mask>
<g mask="url(#mask0_47_6576)">
<path d="M20.5477 2.33301H15.3348L14.9265 1.5295C14.84 1.35772 14.7067 1.21322 14.5417 1.11226C14.3767 1.01129 14.1865 0.957878 13.9925 0.958015H9.0272C8.83362 0.957279 8.64374 1.0105 8.47932 1.11157C8.31491 1.21264 8.1826 1.35748 8.09756 1.5295L7.68922 2.33301H2.4763C2.29196 2.33301 2.11517 2.40545 1.98483 2.53438C1.85448 2.66331 1.78125 2.83818 1.78125 3.02051L1.78125 4.39551C1.78125 4.57785 1.85448 4.75272 1.98483 4.88165C2.11517 5.01058 2.29196 5.08301 2.4763 5.08301H20.5477C20.7321 5.08301 20.9089 5.01058 21.0392 4.88165C21.1696 4.75272 21.2428 4.57785 21.2428 4.39551V3.02051C21.2428 2.83818 21.1696 2.66331 21.0392 2.53438C20.9089 2.40545 20.7321 2.33301 20.5477 2.33301ZM4.09231 21.0244C4.12546 21.548 4.3591 22.0395 4.74568 22.3987C5.13226 22.7579 5.64271 22.9579 6.17313 22.958H16.8509C17.3813 22.9579 17.8918 22.7579 18.2784 22.3987C18.6649 22.0395 18.8986 21.548 18.9317 21.0244L19.8527 6.45801H3.17136L4.09231 21.0244Z" fill="white"/>
</g>
</svg>
