<svg width="42" height="43" viewBox="0 0 42 43" fill="none" xmlns="http://www.w3.org/2000/svg">
<rect x="0.476562" y="0.822754" width="41.2018" height="41.8573" rx="20.6009" fill="white"/>
<path d="M21.0781 12.1709C15.8436 12.1709 11.5781 16.4725 11.5781 21.7514C11.5781 27.0303 15.8436 31.3319 21.0781 31.3319C26.3126 31.3319 30.5781 27.0303 30.5781 21.7514C30.5781 16.4725 26.3126 12.1709 21.0781 12.1709ZM25.2106 25.1716C25.0776 25.4016 24.8401 25.5261 24.5931 25.5261C24.4696 25.5261 24.3461 25.4974 24.2321 25.4207L21.2871 23.6483C20.5556 23.2076 20.0141 22.24 20.0141 21.3873V17.4593C20.0141 17.0665 20.3371 16.7408 20.7266 16.7408C21.1161 16.7408 21.4391 17.0665 21.4391 17.4593V21.3873C21.4391 21.7322 21.7241 22.24 22.0186 22.4125L24.9636 24.1849C25.3056 24.386 25.4196 24.8267 25.2106 25.1716Z" fill="#292D32"/>
</svg>
