<svg width="43" height="43" viewBox="0 0 43 43" fill="none" xmlns="http://www.w3.org/2000/svg">
<rect x="0.664062" y="0.922852" width="41.5116" height="41.8573" rx="20.7558" fill="white"/>
<mask id="mask0_2196_1059" style="mask-type:alpha" maskUnits="userSpaceOnUse" x="10" y="10" width="23" height="23">
<rect x="10.418" y="10.8515" width="22" height="22" fill="#D9D9D9"/>
</mask>
<g mask="url(#mask0_2196_1059)">
<path fill-rule="evenodd" clip-rule="evenodd" d="M24.8861 17.6018C25.8804 18.2939 26.621 19.2923 26.9948 20.4447C27.2106 21.119 27.3015 21.827 27.2632 22.534C27.2149 23.3627 26.9946 24.1723 26.6164 24.9112C25.9695 26.1757 24.6209 27.4759 23.7056 28.6984C23.4371 28.6208 18.9448 28.9766 18.2688 29.0219C18.0646 28.1755 17.7061 27.374 17.2113 26.6576C16.6792 25.9928 16.2487 25.2527 15.9337 24.4616C15.5963 23.5789 15.4604 22.6319 15.5359 21.6899C15.6469 20.6707 15.9995 19.6928 16.5644 18.8373C17.2708 17.8203 18.2945 17.0662 19.4752 16.693C20.3929 16.4121 21.3647 16.3566 22.3084 16.5313C23.2397 16.6988 24.1229 17.0687 24.8958 17.6148L24.8861 17.6018ZM21.9753 32.6054C21.6167 32.7751 21.2237 32.8592 20.8271 32.8512C20.4841 32.8459 20.1468 32.7634 19.84 32.61C19.5332 32.4566 19.2648 32.2362 19.0548 31.965L23.0328 31.7224C22.7654 32.1077 22.4019 32.4166 21.9785 32.6183L21.9753 32.6054ZM23.4274 30.7619L18.6084 31.0659L18.5438 30.8718L18.3691 29.8919L23.5794 29.5684C23.5774 29.9792 23.522 30.388 23.4145 30.7845L23.4274 30.7619Z" fill="black"/>
<path d="M27.9279 16.1302C27.8538 16.2172 27.7628 16.2882 27.6604 16.3389C27.558 16.3897 27.4463 16.4191 27.3322 16.4254C27.2181 16.4317 27.1039 16.4148 26.9965 16.3757C26.8892 16.3366 26.7908 16.276 26.7076 16.1978C26.6243 16.1195 26.5577 16.0252 26.512 15.9205C26.4662 15.8157 26.4422 15.7028 26.4414 15.5885C26.4406 15.4742 26.463 15.361 26.5073 15.2556C26.5516 15.1503 26.6168 15.055 26.6989 14.9756L27.7953 13.7918C27.9489 13.6284 28.161 13.5327 28.3852 13.5257C28.6093 13.5188 28.827 13.6011 28.9904 13.7546C29.1538 13.9082 29.2495 14.1203 29.2565 14.3445C29.2635 14.5686 29.1811 14.7863 29.0276 14.9497L27.9279 16.1302Z" fill="black"/>
<path d="M15.8208 14.9754C15.903 15.0548 15.9682 15.1501 16.0124 15.2554C16.0567 15.3608 16.0791 15.474 16.0783 15.5883C16.0775 15.7026 16.0535 15.8155 16.0077 15.9203C15.962 16.025 15.8955 16.1193 15.8122 16.1976C15.7289 16.2758 15.6306 16.3364 15.5232 16.3755C15.4158 16.4146 15.3016 16.4315 15.1875 16.4252C15.0734 16.4189 14.9617 16.3895 14.8593 16.3387C14.7569 16.288 14.6659 16.217 14.5918 16.13L13.4954 14.9495C13.3418 14.7865 13.2593 14.5692 13.266 14.3454C13.2727 14.1216 13.368 13.9096 13.531 13.7561C13.6939 13.6025 13.9112 13.52 14.135 13.5267C14.3588 13.5334 14.5708 13.6287 14.7244 13.7916L15.8208 14.9754Z" fill="black"/>
<path d="M30.0706 21.3016C29.8656 21.3673 29.6432 21.3522 29.449 21.2594C29.2547 21.1666 29.1033 21.0031 29.0256 20.8023C28.9479 20.6015 28.9499 20.3786 29.0311 20.1793C29.1123 19.9799 29.2667 19.8191 29.4625 19.7297L31.0538 19.2802C31.1584 19.2324 31.2717 19.2066 31.3868 19.2042C31.5018 19.2019 31.616 19.223 31.7226 19.2664C31.8291 19.3098 31.9257 19.3745 32.0063 19.4566C32.0869 19.5387 32.1499 19.6363 32.1914 19.7436C32.2329 19.8509 32.252 19.9656 32.2476 20.0805C32.2432 20.1955 32.2154 20.3083 32.1658 20.4121C32.1162 20.5159 32.0459 20.6085 31.9592 20.6841C31.8726 20.7598 31.7713 20.8169 31.6618 20.852L30.0706 21.3016Z" fill="black"/>
<path d="M13.3309 19.7491C13.4339 19.7916 13.5275 19.8539 13.6064 19.9326C13.6853 20.0112 13.748 20.1046 13.7908 20.2075C13.8336 20.3104 13.8557 20.4206 13.8558 20.5321C13.856 20.6435 13.8342 20.7538 13.7918 20.8568C13.7493 20.9598 13.687 21.0534 13.6083 21.1323C13.5297 21.2112 13.4362 21.2739 13.3334 21.3167C13.2305 21.3595 13.1202 21.3816 13.0088 21.3818C12.8974 21.3819 12.7871 21.3602 12.6841 21.3177L11.1187 20.8358C10.9107 20.75 10.7453 20.5851 10.6588 20.3774C10.5724 20.1696 10.572 19.9361 10.6578 19.7281C10.7436 19.5201 10.9085 19.3546 11.1162 19.2682C11.324 19.1818 11.5575 19.1814 11.7655 19.2672L13.3309 19.7491Z" fill="black"/>
<path d="M22.4812 13.3971C22.4906 13.5116 22.4767 13.6267 22.4401 13.7356C22.4036 13.8444 22.3452 13.9446 22.2686 14.0302C22.1919 14.1157 22.0987 14.1846 21.9945 14.2329C21.8903 14.2811 21.7774 14.3076 21.6626 14.3106C21.5478 14.3137 21.4336 14.2934 21.327 14.2508C21.2203 14.2082 21.1235 14.1444 21.0424 14.0631C20.9613 13.9818 20.8976 13.8849 20.8553 13.7781C20.8129 13.6714 20.7928 13.5572 20.7961 13.4424L20.7347 11.7186C20.7317 11.6077 20.7506 11.4974 20.7903 11.3938C20.8299 11.2903 20.8896 11.1955 20.9659 11.1151C21.0422 11.0346 21.1336 10.9699 21.2349 10.9247C21.3361 10.8796 21.4453 10.8548 21.5562 10.8518C21.667 10.8488 21.7774 10.8677 21.8809 10.9074C21.9845 10.9471 22.0792 11.0068 22.1597 11.083C22.2402 11.1593 22.3049 11.2507 22.35 11.352C22.3952 11.4533 22.42 11.5624 22.4229 11.6733L22.4812 13.3971Z" fill="black"/>
<path d="M28.9061 26.3695C28.6861 26.3266 28.4922 26.1981 28.3669 26.0122C28.2417 25.8263 28.1954 25.5983 28.2383 25.3782C28.2812 25.1582 28.4097 24.9643 28.5956 24.839C28.7815 24.7138 29.0095 24.6675 29.2296 24.7104L30.9146 24.9562C31.0235 24.9774 31.1272 25.0199 31.2197 25.0812C31.3123 25.1425 31.3918 25.2215 31.4538 25.3135C31.5158 25.4056 31.5591 25.5089 31.5812 25.6177C31.6033 25.7265 31.6037 25.8385 31.5825 25.9475C31.5612 26.0564 31.5187 26.1601 31.4574 26.2526C31.3961 26.3451 31.3172 26.4247 31.2251 26.4867C31.1331 26.5487 31.0297 26.592 30.9209 26.6141C30.8122 26.6361 30.7001 26.6366 30.5912 26.6153L28.9061 26.3695Z" fill="black"/>
<path d="M13.0514 24.7167C13.1604 24.6955 13.2724 24.6959 13.3812 24.718C13.49 24.7401 13.5933 24.7833 13.6854 24.8454C13.7774 24.9074 13.8564 24.9869 13.9177 25.0794C13.979 25.172 14.0215 25.2756 14.0427 25.3846C14.064 25.4935 14.0635 25.6056 14.0415 25.7144C14.0194 25.8231 13.9761 25.9265 13.9141 26.0186C13.8521 26.1106 13.7725 26.1895 13.68 26.2508C13.5875 26.3122 13.4838 26.3546 13.3749 26.3759L11.6866 26.6217C11.5776 26.6429 11.4656 26.6425 11.3568 26.6204C11.248 26.5983 11.1447 26.5551 11.0526 26.4931C10.9606 26.431 10.8816 26.3515 10.8203 26.259C10.759 26.1664 10.7165 26.0628 10.6953 25.9538C10.6741 25.8449 10.6745 25.7328 10.6966 25.624C10.7186 25.5153 10.7619 25.4119 10.8239 25.3199C10.8859 25.2278 10.9655 25.1489 11.058 25.0876C11.1505 25.0262 11.2542 24.9838 11.3632 24.9625L13.0514 24.7167Z" fill="black"/>
</g>
</svg>
