<svg width="43" height="43" viewBox="0 0 43 43" fill="none" xmlns="http://www.w3.org/2000/svg">
<rect x="0.824219" y="0.922852" width="41.5116" height="41.8573" rx="20.7558" fill="white"/>
<mask id="mask0_2196_1061" style="mask-type:alpha" maskUnits="userSpaceOnUse" x="12" y="12" width="20" height="20">
<rect x="12.082" y="12.3516" width="19" height="19" fill="#D9D9D9"/>
</mask>
<g mask="url(#mask0_2196_1061)">
<path d="M21.5836 12.3516C17.9071 12.3516 14.9336 15.3251 14.9336 19.0016C14.9336 20.6546 15.4086 22.2031 16.2731 23.5996C17.1756 25.0626 18.3631 26.3166 19.2751 27.7796C19.7216 28.4921 20.0446 29.1571 20.3866 29.9266C20.6336 30.4491 20.8331 31.3516 21.5836 31.3516C22.3341 31.3516 22.5336 30.4491 22.7711 29.9266C23.1226 29.1571 23.4361 28.4921 23.8826 27.7796C24.7946 26.3261 25.9821 25.0721 26.8846 23.5996C27.7586 22.2031 28.2336 20.6546 28.2336 19.0016C28.2336 15.3251 25.2601 12.3516 21.5836 12.3516ZM21.5836 21.6141C20.2726 21.6141 19.2086 20.5501 19.2086 19.2391C19.2086 17.9281 20.2726 16.8641 21.5836 16.8641C22.8946 16.8641 23.9586 17.9281 23.9586 19.2391C23.9586 20.5501 22.8946 21.6141 21.5836 21.6141Z" fill="black"/>
</g>
</svg>
