<svg width="49" height="47" viewBox="0 0 49 47" fill="none" xmlns="http://www.w3.org/2000/svg">
<path d="M25.0444 0H23.9556C10.7253 0 0 10.5213 0 23.5C0 36.4787 10.7253 47 23.9556 47H25.0444C38.2747 47 49 36.4787 49 23.5C49 10.5213 38.2747 0 25.0444 0Z" fill="white"/>
<path d="M30.9625 13.4952L28.8719 12.1936L28.8607 12.1872C28.287 11.8161 27.4979 11.9999 27.1019 12.7209L26.9717 12.9643C26.9717 12.9647 26.9717 12.9653 26.9717 12.9657C26.3672 14.1119 25.4577 14.8855 24.3705 14.8855C23.2833 14.8855 22.3709 14.1126 21.7608 12.9671L21.6265 12.7171L21.6251 12.7129C21.2543 12.0058 20.4721 11.813 19.8942 12.187L19.883 12.1937L17.7925 13.4949C17.0313 13.9684 16.7248 15.0925 17.195 15.991C17.8121 17.141 17.9422 18.3312 17.4371 19.2823C16.9221 20.2529 15.8657 20.7514 14.5951 20.7514C13.778 20.7514 13 21.5014 13 22.5493V24.8629C13 25.9026 13.7696 26.6607 14.5951 26.6607C15.8657 26.6607 16.9221 27.1595 17.4371 28.1322C17.9422 29.0848 17.8107 30.2778 17.1964 31.4338C16.7263 32.331 17.0299 33.4425 17.7925 33.917L19.883 35.2186L19.8942 35.2251C20.4679 35.5962 21.2571 35.4123 21.6531 34.6914L21.7832 34.4479M30.9625 13.4952L31.5586 15.9799M30.9625 13.4952C31.7265 13.97 32.0301 15.0824 31.5586 15.9799M21.7832 34.4479C21.7832 34.4475 21.7832 34.4483 21.7832 34.4479ZM21.7832 34.4479C22.3877 33.3016 23.2972 32.5267 24.3845 32.5267C25.4717 32.5267 26.3841 33.2995 26.9941 34.4451L27.1257 34.6913C27.5217 35.4123 28.3122 35.5963 28.8845 35.2252L28.8957 35.2185L30.9863 33.9173C31.7503 33.4421 32.0525 32.317 31.5838 31.4349M31.5838 31.4349L32.2008 31.1067M31.5838 31.4349C30.9681 30.2784 30.8365 29.0854 31.3417 28.1322C31.8566 27.1595 32.9145 26.6607 34.1836 26.6607C35.0022 26.6607 35.7802 25.9108 35.7802 24.8629V22.5527C35.769 21.5087 34.9952 20.7514 34.171 20.7514C32.9019 20.7514 31.8454 20.2526 31.3291 19.2812C30.8225 18.3294 30.9485 17.1365 31.5586 15.9799M31.5586 15.9799C31.5586 15.98 31.5586 15.9798 31.5586 15.9799ZM19.7571 23.7061C19.7571 26.3888 21.7805 28.6779 24.3831 28.6779C26.9871 28.6779 29.0105 26.3888 29.0105 23.7061C29.0105 21.0234 26.9871 18.7344 24.3831 18.7344C21.7805 18.7344 19.7571 21.0234 19.7571 23.7061Z" stroke="#FC604D" stroke-width="1.5"/>
</svg>
