<svg width="84" height="81" viewBox="0 0 84 81" fill="none" xmlns="http://www.w3.org/2000/svg">
<g clip-path="url(#clip0_278_807)">
<path d="M83.3217 0.450684V9.26345H64.8218V80.2752H62.3389L55.2617 71.7183V43.6201C52.363 44.8133 47.9768 45.4084 42.1006 45.4084C42.1006 46.1744 42.2245 47.3238 42.4729 48.8563C42.4729 53.7957 40.9208 57.7547 37.8168 60.7342C34.7126 63.716 30.718 65.2044 25.8352 65.2044C18.9638 65.2044 13.1708 61.9275 8.45265 55.37C4.31292 49.7507 1.7888 43.1531 0.878906 35.5737H3.98288C4.97604 41.0239 7.04425 45.7077 10.1911 49.6229C13.8323 54.2211 18.1372 56.5194 23.1038 56.5194C26.4133 56.5194 29.2499 55.4774 31.6089 53.3906C33.9678 51.3049 35.1473 48.601 35.1473 45.2806C35.1473 41.9599 33.8631 39.2775 31.2986 37.2342C28.7319 35.1906 25.7928 34.1687 22.483 34.1687C21.0746 34.1687 18.7583 34.5102 15.5301 35.1906L8.82529 27.0165C14.4531 26.5916 19.4197 25.5276 23.7246 23.8235C30.181 21.3548 33.4092 17.9063 33.4092 13.478C33.4092 11.0953 32.4567 9.22133 30.5533 7.85821C28.6484 6.49736 26.4969 5.81467 24.097 5.81467C19.5437 5.81467 13.6248 7.90203 6.34211 12.0731L0.878906 4.02696C6.42346 1.64391 11.9702 0.450684 17.5164 0.450684C23.2278 0.450684 27.9866 1.89945 31.7949 4.79304C36.1812 8.03009 38.3755 12.4561 38.3755 18.0759C38.4569 24.1226 34.6508 28.6767 26.9528 31.7419C33.4905 34.8927 39.037 36.4673 43.5903 36.4673C47.8933 36.4673 50.9159 35.5955 52.6538 33.849C54.3922 32.1048 55.2614 29.0176 55.2614 24.5893V9.26345H46.0732L39.369 0.450684H83.3217Z" fill="white"/>
</g>
<defs>
<clipPath id="clip0_278_807">
<rect width="82.4427" height="79.8246" fill="white" transform="translate(0.878906 0.450684)"/>
</clipPath>
</defs>
</svg>
