<svg width="22" height="22" viewBox="0 0 22 22" fill="none" xmlns="http://www.w3.org/2000/svg">
<path fill-rule="evenodd" clip-rule="evenodd" d="M0 11C0 13.3758 0.753132 15.5755 2.03353 17.3736C2.74707 18.3756 3.62438 19.2529 4.62636 19.9665C6.42449 21.2469 8.62424 22 11 22C17.0752 22 22 17.0752 22 11C22 8.62424 21.2469 6.42449 19.9665 4.62636C19.2529 3.62438 18.3756 2.74707 17.3736 2.03353C15.5755 0.753132 13.3758 0 11 0C4.92482 0 0 4.92482 0 11ZM11 18.3333C9.63991 18.3333 8.3666 17.9632 7.27467 17.3179L17.3179 7.27467C17.9632 8.3666 18.3333 9.63991 18.3333 11C18.3333 15.0502 15.0502 18.3333 11 18.3333ZM4.68209 14.7253L14.7253 4.68209C13.6334 4.03675 12.3601 3.66667 11 3.66667C6.9498 3.66667 3.66667 6.9498 3.66667 11C3.66667 12.3601 4.03675 13.6334 4.68209 14.7253Z" fill="white"/>
</svg>
