<svg width="25" height="25" viewBox="0 0 25 25" fill="none" xmlns="http://www.w3.org/2000/svg">
<path d="M10.7266 8.9198V8.91989C10.7266 9.52137 10.4872 10.0988 10.0618 10.5242C9.63646 10.9496 9.05901 11.1889 8.45753 11.1889H2.91942C2.31794 11.1889 1.74048 10.9496 1.31511 10.5242C0.889732 10.0988 0.650391 9.52137 0.650391 8.91989V3.38177C0.650391 2.78028 0.889732 2.20283 1.31511 1.77745C1.74048 1.35207 2.31794 1.11273 2.91942 1.11273H8.45753C9.05966 1.11273 9.63623 1.35184 10.0628 1.77745C10.4882 2.2028 10.7275 2.78023 10.7275 3.38168C10.7275 3.38171 10.7275 3.38174 10.7275 3.38177L10.7266 8.9198ZM9.88118 8.91991V8.91982L9.88017 3.38177C9.88017 3.38174 9.88017 3.38171 9.88017 3.38168C9.88015 3.00396 9.72949 2.64207 9.46334 2.37592C9.19718 2.10977 8.83527 1.95909 8.4575 1.95909H2.91939C2.54165 1.95909 2.17972 2.10976 1.91355 2.37593C1.6474 2.64209 1.49672 3.00399 1.49672 3.38177V8.9209C1.49672 9.29864 1.64739 9.66057 1.91356 9.92674L2.26711 9.57318L1.91356 9.92674C2.17972 10.1929 2.54162 10.3436 2.91939 10.3436H2.91948L8.45851 10.3426C8.45854 10.3426 8.45857 10.3426 8.4586 10.3426C8.83632 10.3426 9.19821 10.1919 9.46436 9.92574C9.7305 9.65959 9.88118 9.29768 9.88118 8.91991Z" fill="#292D32" stroke="#292D32"/>
<path d="M10.7266 21.8433V21.8434C10.7266 22.4448 10.4872 23.0223 10.0618 23.4477C9.63646 23.873 9.05901 24.1124 8.45753 24.1124H2.91942C2.31794 24.1124 1.74048 23.873 1.31511 23.4477C0.889732 23.0223 0.650391 22.4448 0.650391 21.8434V16.3052C0.650391 15.703 0.889571 15.1264 1.31531 14.6997C1.74066 14.2745 2.31803 14.0352 2.91942 14.0352H8.45753C9.05977 14.0352 9.6363 14.2744 10.0628 14.7009C10.4882 15.1263 10.7275 15.7037 10.7275 16.3051C10.7275 16.3052 10.7275 16.3052 10.7275 16.3052L10.7266 21.8433ZM9.88118 21.8434V21.8433L9.88017 16.3053C9.88017 16.3053 9.88017 16.3052 9.88017 16.3052C9.88015 15.9275 9.72949 15.5656 9.46334 15.2994C9.19718 15.0333 8.83527 14.8826 8.4575 14.8826H2.91939C2.54165 14.8826 2.17972 15.0333 1.91355 15.2995C1.6474 15.5656 1.49672 15.9275 1.49672 16.3053V21.8434C1.49672 22.2212 1.64739 22.5831 1.91356 22.8493L2.26711 22.4957L1.91356 22.8493C2.17972 23.1154 2.54162 23.2661 2.91939 23.2661H8.45851C8.83626 23.2661 9.19819 23.1154 9.46435 22.8492C9.7305 22.5831 9.88118 22.2212 9.88118 21.8434Z" fill="#292D32" stroke="#292D32"/>
<path d="M22.804 8.91988V8.9198L22.803 3.38174C22.803 3.38171 22.803 3.38168 22.803 3.38165C22.803 3.00393 22.6523 2.64205 22.3862 2.3759L22.3862 2.3759C22.12 2.10975 21.7581 1.95907 21.3804 1.95907H15.8423C15.4645 1.95907 15.1026 2.10973 14.8364 2.37591C14.5703 2.64207 14.4196 3.00397 14.4196 3.38174V3.38183L14.4206 8.92087C14.4206 8.9209 14.4206 8.92093 14.4206 8.92096C14.4206 9.29867 14.5713 9.66057 14.8374 9.92672C15.1036 10.1929 15.4655 10.3435 15.8432 10.3435H15.8433L21.3814 10.3426C21.3814 10.3426 21.3814 10.3426 21.3814 10.3426C21.7592 10.3425 22.1211 10.1919 22.3872 9.92572C22.6533 9.65956 22.804 9.29766 22.804 8.91988ZM21.3814 1.11273C21.9828 1.11273 22.5603 1.35207 22.9857 1.77745C23.411 2.20282 23.6504 2.78028 23.6504 3.38177V8.91988C23.6504 9.52228 23.4111 10.0988 22.9857 10.5242C22.5603 10.9496 21.9828 11.1889 21.3814 11.1889H15.8432C15.2418 11.1889 14.6643 10.9496 14.2389 10.5242C13.8136 10.0988 13.5742 9.52137 13.5742 8.91988V3.38177C13.5742 2.78028 13.8136 2.20283 14.2389 1.77745C14.6643 1.35207 15.2418 1.11273 15.8432 1.11273H21.3814Z" fill="#292D32" stroke="#292D32"/>
<path d="M15.0505 22.6358L15.0499 22.6353C14.1048 21.6912 13.5742 20.4092 13.5742 19.0733C13.5742 17.7378 14.1057 16.4566 15.0503 15.5109C15.9943 14.5659 17.2762 14.0353 18.612 14.0352C19.9477 14.0371 21.228 14.5685 22.1735 15.5131C23.118 16.4575 23.6495 17.7388 23.6504 19.0746C23.6503 20.4104 23.1197 21.6923 22.1755 22.6365L22.1755 22.6365C21.2302 23.5818 19.9482 24.1124 18.6123 24.1124C17.2755 24.1124 15.9947 23.5818 15.0505 22.6358ZM15.6466 22.0381L15.6466 22.0381C16.4331 22.8246 17.4998 23.2661 18.6113 23.2661C19.7237 23.2661 20.7893 22.8247 21.5758 22.0383C22.3626 21.2525 22.804 20.1857 22.804 19.0733C22.804 17.9608 22.3625 16.8951 21.576 16.1086L21.576 16.1086C20.7894 15.3221 19.7228 14.8806 18.6113 14.8806C17.4987 14.8806 16.4331 15.3221 15.6466 16.1086L15.6466 16.1086C14.86 16.8952 14.4186 17.9618 14.4186 19.0733C14.4186 20.1859 14.8601 21.2515 15.6466 22.0381Z" fill="#292D32" stroke="#292D32"/>
</svg>
