<svg width="23" height="22" viewBox="0 0 23 22" fill="none" xmlns="http://www.w3.org/2000/svg">
<path fill-rule="evenodd" clip-rule="evenodd" d="M14.9102 9.5717L10.5561 13.7245C10.4268 13.8478 10.2527 13.917 10.0702 13.917C9.88782 13.917 9.71274 13.8478 9.58349 13.7245L7.41007 11.6481C7.14149 11.3917 7.14149 10.9761 7.41007 10.7197C7.67957 10.4633 8.11499 10.4651 8.38266 10.7197L10.0702 12.3323L13.9377 8.64333C14.2062 8.38695 14.6417 8.38783 14.9102 8.64333C15.1788 8.8997 15.1788 9.31533 14.9102 9.5717ZM11.1602 2.65308C4.56199 2.65308 2.22266 4.88608 2.22266 11.1843C2.22266 17.4826 4.56199 19.7156 11.1602 19.7156C17.7583 19.7156 20.0977 17.4826 20.0977 11.1843C20.0977 4.88608 17.7583 2.65308 11.1602 2.65308Z" fill="black"/>
</svg>
