<svg width="17" height="17" viewBox="0 0 17 17" fill="none" xmlns="http://www.w3.org/2000/svg">
<path fill-rule="evenodd" clip-rule="evenodd" d="M2.42655 9.91905L4.3217 8.02391C4.58336 7.76224 5.0076 7.76224 5.26927 8.02391C5.51224 8.26688 5.5296 8.65003 5.32133 8.91303L5.26927 8.97148L3.37413 10.8666C2.58913 11.6516 2.58913 12.9243 3.37413 13.7093C4.13108 14.4663 5.34156 14.4933 6.13091 13.7904L6.21684 13.7093L8.11198 11.8142C8.37364 11.5525 8.79788 11.5525 9.05955 11.8142C9.30252 12.0572 9.31988 12.4403 9.11162 12.7033L9.05955 12.7618L7.16441 14.6569C5.85609 15.9652 3.73488 15.9652 2.42655 14.6569C1.15266 13.383 1.11914 11.3384 2.32598 10.024L2.42655 9.91905ZM9.05955 3.28605C10.3679 1.97773 12.4891 1.97773 13.7974 3.28605C15.1057 4.59437 15.1057 6.71558 13.7974 8.02391L11.9023 9.91905C11.6406 10.1807 11.2164 10.1807 10.9547 9.91905C10.693 9.65738 10.693 9.23314 10.9547 8.97148L12.8498 7.07633C13.6348 6.29134 13.6348 5.01862 12.8498 4.23362C12.0648 3.44863 10.7921 3.44863 10.0071 4.23362L8.11198 6.12876C7.85031 6.39043 7.42607 6.39043 7.16441 6.12876C6.90274 5.8671 6.90274 5.44286 7.16441 5.18119L9.05955 3.28605ZM9.05955 7.07633C9.32121 6.81467 9.74546 6.81467 10.0071 7.07633C10.2688 7.338 10.2688 7.76224 10.0071 8.02391L7.16441 10.8666C6.90274 11.1283 6.4785 11.1283 6.21684 10.8666C5.95517 10.605 5.95517 10.1807 6.21684 9.91905L9.05955 7.07633Z" fill="url(#paint0_linear_232_3402)"/>
<defs>
<linearGradient id="paint0_linear_232_3402" x1="1.44531" y1="8.23932" x2="14.7786" y2="8.23932" gradientUnits="userSpaceOnUse">
<stop stop-color="#FA4B57"/>
<stop offset="1" stop-color="#FC674B"/>
</linearGradient>
</defs>
</svg>
