<svg width="49" height="47" viewBox="0 0 49 47" fill="none" xmlns="http://www.w3.org/2000/svg">
<path d="M25.0444 0H23.9556C10.7253 0 0 10.5213 0 23.5C0 36.4787 10.7253 47 23.9556 47H25.0444C38.2747 47 49 36.4787 49 23.5C49 10.5213 38.2747 0 25.0444 0Z" fill="white"/>
<path d="M27.1124 15.6531H30.6498C31.2543 15.6531 31.8 16.0228 32.0379 16.5932L36.1797 26.5095V32.7132C36.1797 34.4263 34.8266 35.8151 33.1573 35.8151H15.0224C13.3532 35.8151 12 34.4263 12 32.7132V26.5095L16.1412 16.5932C16.3792 16.0228 16.9256 15.6531 17.5301 15.6531H21.0673" stroke="#FC614D" stroke-width="1.5" stroke-linecap="round" stroke-linejoin="round"/>
<path d="M28.6399 20.4383L24.1063 24.9588L19.5728 20.4395" stroke="#FC614D" stroke-width="1.5" stroke-linecap="round" stroke-linejoin="round"/>
<path d="M24.0918 11V24.9583" stroke="#FC614D" stroke-width="1.5" stroke-linecap="round" stroke-linejoin="round"/>
<path d="M12 26.5097H18.0449C18.8795 26.5097 19.5561 27.2042 19.5561 28.0607V29.6116C19.5561 30.4681 20.2326 31.1626 21.0673 31.1626H27.1124C27.9464 31.1626 28.6236 30.4681 28.6236 29.6116V28.0607C28.6236 27.2042 29.2995 26.5097 30.1349 26.5097H36.1797" stroke="#FC614D" stroke-width="1.5" stroke-linecap="round" stroke-linejoin="round"/>
</svg>
