<svg width="312" height="172" viewBox="0 0 312 172" fill="none" xmlns="http://www.w3.org/2000/svg">
<path d="M145.359 38.0628C145.528 38.0628 145.655 37.9359 145.655 37.7667C145.655 37.5976 145.528 37.4707 145.359 37.4707C145.189 37.4707 145.062 37.5976 145.062 37.7667C145.062 37.9359 145.189 38.0628 145.359 38.0628Z" fill="#496AB0"/>
<path d="M145.361 171.281L145.53 171.154L145.361 170.985L145.191 171.154L145.361 171.281Z" fill="#496AB0"/>
<path d="M154.873 171.492C155.043 171.492 155.212 171.323 155.212 171.154C155.212 170.985 155.043 170.815 154.873 170.815C154.704 170.815 154.535 170.985 154.535 171.154C154.535 171.365 154.704 171.492 154.873 171.492Z" fill="#496AB0"/>
<path d="M164.433 171.704C164.729 171.704 164.982 171.45 164.982 171.154C164.982 170.858 164.729 170.604 164.433 170.604C164.137 170.604 163.883 170.858 163.883 171.154C163.883 171.45 164.137 171.704 164.433 171.704Z" fill="#496AB0"/>
<path d="M229.521 2.45312L229.182 7.44353L233.835 9.34665L228.929 10.5731L228.59 15.5635L225.926 11.2921L221.062 12.5185L224.277 8.66998L221.655 4.39854L226.307 6.30166L229.521 2.45312Z" fill="#2B2A29"/>
<path d="M306.067 106.321L303.318 101.923L298.285 103.15L301.626 99.2164L298.877 94.8181L303.656 96.7635L306.997 92.7881L306.617 97.9477L311.396 99.8931L306.363 101.12L305.982 106.279L306.067 106.321ZM303.402 101.796L305.982 105.941L306.321 101.077H306.363L311.057 99.9354L306.532 98.1168L306.87 93.2533L303.741 96.9749L299.216 95.1564L301.795 99.301L298.666 103.023L303.402 101.838V101.796Z" fill="#252422"/>
<path d="M35.9074 58.8697L36.711 54.2176L32.5664 51.9762L37.2608 51.3418L38.0643 46.6475L40.1366 50.9189L44.831 50.2845L41.4053 53.541L43.4776 57.8124L39.2908 55.571L35.9074 58.8697Z" fill="#2B2A29"/>
<path d="M94.1868 14.083L93.637 21.6109L100.657 24.4444L93.2987 26.263L92.7912 33.8332L88.7735 27.4048L81.457 29.2234L86.3206 23.4294L82.3029 17.0011L89.3233 19.8769L94.1868 14.083Z" fill="#FEFEFE"/>
<path d="M119.011 11.0376L117.277 8.24639L114.062 9.04993L116.177 6.51244L114.443 3.72119L117.488 4.94765L119.603 2.41016L119.349 5.7089L122.394 6.93535L119.18 7.73889L118.926 11.0376H119.011ZM117.404 7.86577L118.715 9.98034L118.884 7.48514L121.337 6.89306L119.011 5.96265L119.18 3.46744L117.573 5.37056L115.247 4.44015L116.558 6.55473L114.951 8.45785L117.404 7.86577Z" fill="#252422"/>
<path d="M131.995 0C131.995 0 140.327 30.4076 166.716 34.7214C193.149 39.0351 204.567 24.2331 211.968 0.676665C211.968 0.676665 224.529 33.5795 240.346 38.6122C256.205 43.6449 294.733 27.3626 307.336 16.3245C307.336 16.3245 268.766 38.443 271.515 67.9625C271.515 67.9625 274.687 84.6677 311.523 79.931C311.523 79.931 256.121 90.2079 278.831 132.626C278.831 132.626 233.453 99.5543 230.45 149.078C230.45 149.078 176.697 98.1587 150.18 158.509C150.18 158.509 132.08 133.134 110.384 132.161C88.6886 131.146 75.4936 134.529 56.3779 154.153C56.3779 154.153 86.9969 95.2406 25.7588 103.699C25.7588 103.699 52.6139 83.1875 -0.0390625 77.9856C-0.0390625 77.9856 99.6844 65.9748 51.5143 9.93851C51.5143 9.93851 107.297 79.0429 131.995 0.0422915V0Z" fill="#252422"/>
<path d="M133.22 4.01758C133.22 4.01758 141.129 32.8604 166.165 36.9627C191.244 41.0227 202.071 27.0242 209.091 4.65195C209.091 4.65195 221.017 35.8631 236.031 40.6421C251.044 45.421 287.669 29.9423 299.637 19.454C299.637 19.454 263.055 40.4306 265.677 68.4699C265.677 68.4699 268.722 84.3292 303.613 79.8463C303.613 79.8463 251.044 89.6157 272.571 129.877C272.571 129.877 229.518 98.4969 226.642 145.483C226.642 145.483 175.638 97.1859 150.475 154.449C150.475 154.449 133.305 130.385 112.709 129.412C92.1126 128.439 79.5943 131.653 61.4513 150.304C61.4513 150.304 90.5055 94.3946 32.397 102.43C32.397 102.43 57.8988 82.9759 7.91016 78.0278C7.91016 78.0278 102.051 63.5641 56.8415 13.4486C56.8415 13.4486 109.79 79.0005 133.178 4.05987L133.22 4.01758Z" fill="#FEFEFE"/>
<path d="M113.682 145.398L113.132 152.926L120.153 155.802L112.794 157.621L112.287 165.149L108.269 158.72L100.91 160.539L105.816 154.745L101.798 148.359L108.819 151.192L113.682 145.398Z" fill="#FEFEFE"/>
<path d="M282.68 48.7617L282.3 53.7521L286.952 55.6552L282.088 56.8394L281.75 61.8721L279.085 57.6007L274.18 58.7848L277.436 54.9786L274.772 50.7071L279.424 52.568L282.68 48.7617Z" fill="#FEFEFE"/>
<path d="M190.401 153.518L188.667 150.727L185.453 151.53L187.568 148.993L185.834 146.202L188.879 147.428L190.993 144.891L190.74 148.189L193.785 149.416L190.57 150.219L190.317 153.518H190.401ZM188.794 150.346L190.105 152.461L190.274 149.966L192.727 149.374L190.401 148.443L190.57 145.948L188.963 147.851L186.637 146.921L187.948 149.035L186.341 150.938L188.794 150.346Z" fill="#FEFEFE"/>
<path d="M247.452 38.4429L245.718 35.6517L242.504 36.4552L244.618 33.9177L242.885 31.1265L245.93 32.3529L248.044 29.8154L247.79 33.1142L250.835 34.3406L247.621 35.1442L247.367 38.4429H247.452ZM245.845 35.271L247.156 37.3856L247.325 34.8904L249.778 34.2983L247.452 33.3679L247.621 30.8727L246.014 32.7758L243.688 31.8454L244.999 33.96L243.392 35.8631L245.845 35.271Z" fill="#252422"/>
<path d="M258.065 144.383L256.331 141.592L253.117 142.396L255.232 139.858L253.498 137.067L256.543 138.293L258.657 135.756L258.404 139.055L261.449 140.281L258.234 141.085L257.981 144.383H258.065ZM256.458 141.211L257.769 143.326L257.938 140.831L260.391 140.239L258.065 139.308L258.234 136.813L256.627 138.716L254.301 137.786L255.612 139.9L254.005 141.804L256.458 141.211Z" fill="#252422"/>
<path d="M260.857 133.219L260.518 138.209L265.17 140.112L260.307 141.296L259.926 146.329L257.262 142.058L252.398 143.284L255.655 139.436L252.991 135.164L257.643 137.067L260.857 133.219Z" fill="#FEFEFE"/>
</svg>
