<svg width="48" height="47" viewBox="0 0 48 47" fill="none" xmlns="http://www.w3.org/2000/svg">
<path d="M24.5333 0H23.4667C10.5064 0 0 10.5213 0 23.5C0 36.4787 10.5064 47 23.4667 47H24.5333C37.4936 47 48 36.4787 48 23.5C48 10.5213 37.4936 0 24.5333 0Z" fill="white"/>
<path d="M22.6592 19.591V19.5911C22.6592 20.2219 22.4146 20.8248 21.9838 21.267C21.5535 21.7087 20.9721 21.9548 20.3694 21.9548H14.7898C14.1871 21.9548 13.6057 21.7087 13.1754 21.267C12.7446 20.8248 12.5 20.2219 12.5 19.5911V13.8637C12.5 13.233 12.7446 12.63 13.1754 12.1878C13.6057 11.7461 14.1871 11.5 14.7898 11.5H20.3694C20.9729 11.5 21.5534 11.7459 21.985 12.1879C22.4156 12.6301 22.6602 13.233 22.6602 13.8636C22.6602 13.8636 22.6602 13.8637 22.6602 13.8637L22.6592 19.591ZM21.8 19.5911V19.5911L21.799 13.8637C21.799 13.8637 21.799 13.8636 21.799 13.8636C21.799 13.4817 21.6507 13.1132 21.3847 12.8402C21.1183 12.5668 20.7533 12.4095 20.3694 12.4095H14.7898C14.4059 12.4095 14.0408 12.5668 13.7744 12.8402C13.5085 13.1132 13.3602 13.4817 13.3602 13.8637V19.5922C13.3602 19.9741 13.5085 20.3426 13.7745 20.6157C14.0408 20.8891 14.4059 21.0464 14.7898 21.0464H14.7899L20.3704 21.0454C20.3705 21.0454 20.3705 21.0454 20.3705 21.0454C20.7544 21.0453 21.1194 20.8881 21.3858 20.6146C21.6517 20.3416 21.8 19.9731 21.8 19.5911Z" fill="black" stroke="url(#paint0_linear_4_57)"/>
<path d="M22.6592 32.9562V32.9563C22.6592 33.5871 22.4146 34.19 21.9838 34.6322C21.5535 35.0739 20.9721 35.32 20.3694 35.32H14.7898C14.1871 35.32 13.6057 35.0739 13.1754 34.6322C12.7446 34.19 12.5 33.5871 12.5 32.9563V27.2289C12.5 26.5974 12.7445 25.9953 13.1756 25.5518C13.6059 25.1102 14.1872 24.8642 14.7898 24.8642H20.3694C20.9729 24.8642 21.5533 25.1101 21.9848 25.553C22.4156 25.9951 22.6602 26.5981 22.6602 27.2288C22.6602 27.2288 22.6602 27.2289 22.6602 27.2289L22.6592 32.9562ZM21.8 32.9564V32.9563L21.799 27.2289C21.799 27.2289 21.799 27.2289 21.799 27.2289C21.799 26.8469 21.6507 26.4784 21.3847 26.2054C21.1184 25.932 20.7533 25.7747 20.3694 25.7747H14.7898C14.4059 25.7747 14.0408 25.932 13.7744 26.2055C13.5085 26.4785 13.3602 26.847 13.3602 27.2289V32.9564C13.3602 33.3383 13.5085 33.7068 13.7745 33.9799C14.0408 34.2533 14.4059 34.4106 14.7898 34.4106H20.3704C20.7543 34.4106 21.1194 34.2533 21.3858 33.9799C21.6517 33.7068 21.8 33.3383 21.8 32.9564Z" fill="black" stroke="url(#paint1_linear_4_57)"/>
<path d="M34.8195 19.5911V19.591L34.8185 13.8637C34.8185 13.8636 34.8185 13.8636 34.8185 13.8636C34.8185 13.4817 34.6702 13.1132 34.4043 12.8402L34.4043 12.8402C34.1379 12.5667 33.7728 12.4094 33.389 12.4094H27.8093C27.4254 12.4094 27.0604 12.5667 26.794 12.8402C26.528 13.1132 26.3797 13.4817 26.3797 13.8637L26.3797 13.8638L26.3807 19.5921C26.3807 19.5922 26.3807 19.5922 26.3807 19.5922C26.3807 19.9741 26.529 20.3426 26.795 20.6156C27.0614 20.8891 27.4264 21.0464 27.8103 21.0464H27.8104L33.3899 21.0453C33.39 21.0453 33.39 21.0453 33.39 21.0453C33.7739 21.0453 34.1389 20.888 34.4053 20.6146C34.6712 20.3416 34.8195 19.9731 34.8195 19.5911ZM33.3899 11.5C33.9927 11.5 34.574 11.7461 35.0044 12.1878C35.4351 12.63 35.6797 13.233 35.6797 13.8637V19.5911C35.6797 20.2228 35.4352 20.8248 35.0044 21.267C34.574 21.7087 33.9927 21.9548 33.3899 21.9548H27.8103C27.2076 21.9548 26.6262 21.7087 26.1959 21.267C25.7651 20.8248 25.5205 20.2219 25.5205 19.5911V13.8637C25.5205 13.233 25.7651 12.63 26.1959 12.1878C26.6262 11.7461 27.2076 11.5 27.8103 11.5H33.3899Z" fill="black" stroke="url(#paint2_linear_4_57)"/>
<path d="M27.0135 33.7926L27.013 33.7921C26.0586 32.8134 25.5205 31.4818 25.5205 30.0916C25.5205 28.7017 26.0594 27.3709 27.0134 26.3907C27.9662 25.4115 29.2573 24.8643 30.5998 24.8642C31.9423 24.8661 33.2318 25.4143 34.1863 26.3931C35.14 27.372 35.6789 28.7028 35.6798 30.0929C35.6797 31.4831 35.1416 32.8145 34.1881 33.7933L34.1881 33.7933C33.234 34.7727 31.9427 35.32 30.6001 35.32C29.2566 35.32 27.9666 34.7728 27.0135 33.7926ZM27.6102 33.1409L27.6102 33.1409C28.4009 33.9525 29.476 34.4105 30.5991 34.4105C31.7233 34.4105 32.7973 33.9525 33.588 33.1409C34.3784 32.3306 34.8195 31.2332 34.8195 30.0916C34.8195 28.9497 34.3782 27.8534 33.588 27.0423L33.588 27.0423C32.7973 26.2307 31.7222 25.7726 30.5991 25.7726C29.4749 25.7726 28.4009 26.2307 27.6102 27.0423L27.6102 27.0423C26.82 27.8535 26.3787 28.9508 26.3787 30.0916C26.3787 31.2335 26.82 32.3298 27.6102 33.1409Z" fill="black" stroke="url(#paint3_linear_4_57)"/>
<defs>
<linearGradient id="paint0_linear_4_57" x1="17.5801" y1="11" x2="17.5801" y2="22.4548" gradientUnits="userSpaceOnUse">
<stop stop-color="#FA4D55"/>
<stop offset="1" stop-color="#FC644C"/>
</linearGradient>
<linearGradient id="paint1_linear_4_57" x1="17.5801" y1="24.3642" x2="17.5801" y2="35.82" gradientUnits="userSpaceOnUse">
<stop stop-color="#FA4D55"/>
<stop offset="1" stop-color="#FC644C"/>
</linearGradient>
<linearGradient id="paint2_linear_4_57" x1="30.6001" y1="11" x2="30.6001" y2="22.4548" gradientUnits="userSpaceOnUse">
<stop stop-color="#FA4D55"/>
<stop offset="1" stop-color="#FC644C"/>
</linearGradient>
<linearGradient id="paint3_linear_4_57" x1="30.6001" y1="24.3642" x2="30.6001" y2="35.82" gradientUnits="userSpaceOnUse">
<stop stop-color="#FA4D55"/>
<stop offset="1" stop-color="#FC644C"/>
</linearGradient>
</defs>
</svg>
