<svg width="24" height="24" viewBox="0 0 24 24" fill="none" xmlns="http://www.w3.org/2000/svg">
<mask id="mask0_138_518" style="mask-type:alpha" maskUnits="userSpaceOnUse" x="0" y="0" width="24" height="24">
<rect x="0.0117188" y="0.720215" width="23" height="23" fill="#D9D9D9"/>
</mask>
<g mask="url(#mask0_138_518)">
<path d="M5.96055 20.1274C3.0904 20.1274 0.757812 16.5802 0.757812 12.2201C0.757812 7.85998 3.09226 4.31274 5.96055 4.31274C8.82885 4.31274 11.1633 7.85998 11.1633 12.2201C11.1633 16.5802 8.82885 20.1274 5.96055 20.1274Z" fill="#FAFAFA"/>
<path d="M5.96148 4.68484C7.19474 4.68484 8.37591 5.42889 9.28551 6.78119C10.2565 8.22278 10.7922 10.1554 10.7922 12.2202C10.7922 14.2849 10.2565 16.2176 9.28551 17.6591C8.37591 19.0114 7.19474 19.7555 5.96148 19.7555C4.72823 19.7555 3.54705 19.0114 2.63746 17.6591C1.66462 16.2176 1.13076 14.2849 1.13076 12.2202C1.13076 10.1554 1.66648 8.22278 2.63746 6.78119C3.54705 5.42889 4.72637 4.68484 5.96148 4.68484ZM5.96148 3.9408C2.88299 3.9408 0.386719 7.64801 0.386719 12.2202C0.386719 16.7923 2.88299 20.4995 5.96148 20.4995C9.03997 20.4995 11.5362 16.7923 11.5362 12.2202C11.5362 7.64801 9.03997 3.9408 5.96148 3.9408Z" fill="#B0BEC5"/>
<path d="M4.37351 11.4463C3.87127 10.9739 3.98288 10.0364 4.62648 9.35184C4.65996 9.31649 4.69345 9.28301 4.72879 9.25139C4.44233 9.08956 4.12797 8.99841 3.79687 8.99841C2.45945 8.99841 1.375 10.4735 1.375 12.2908C1.375 14.1081 2.45945 15.5832 3.79687 15.5832C5.13429 15.5832 6.21874 14.1081 6.21874 12.2908C6.21874 11.9653 6.1834 11.6491 6.11829 11.3515C5.51562 11.7849 4.79575 11.8425 4.37351 11.4463Z" fill="url(#paint0_linear_138_518)"/>
<path d="M17.063 20.4995C20.1419 20.4995 22.6378 16.7927 22.6378 12.2202C22.6378 7.6476 20.1419 3.9408 17.063 3.9408C13.9842 3.9408 11.4883 7.6476 11.4883 12.2202C11.4883 16.7927 13.9842 20.4995 17.063 20.4995Z" fill="#EEEEEE"/>
<path d="M17.0621 20.1274C14.1938 20.1274 11.8594 16.5802 11.8594 12.2201C11.8594 7.85998 14.1938 4.31274 17.0621 4.31274C19.9304 4.31274 22.2649 7.85998 22.2649 12.2201C22.2649 16.5802 19.9323 20.1274 17.0621 20.1274Z" fill="#FAFAFA"/>
<path d="M17.063 4.68484C18.2963 4.68484 19.4775 5.42889 20.3871 6.78119C21.3581 8.22278 21.8938 10.1554 21.8938 12.2202C21.8938 14.2849 21.3581 16.2176 20.3871 17.6591C19.4775 19.0114 18.2963 19.7555 17.063 19.7555C15.8298 19.7555 14.6486 19.0114 13.739 17.6591C12.768 16.2176 12.2323 14.2849 12.2323 12.2202C12.2323 10.1554 12.768 8.22278 13.739 6.78119C14.6486 5.42889 15.8298 4.68484 17.063 4.68484ZM17.063 3.9408C13.9846 3.9408 11.4883 7.64801 11.4883 12.2202C11.4883 16.7923 13.9846 20.4995 17.063 20.4995C20.1415 20.4995 22.6378 16.7923 22.6378 12.2202C22.6378 7.64801 20.1415 3.9408 17.063 3.9408Z" fill="#B0BEC5"/>
<path d="M15.4751 11.4463C14.9728 10.9739 15.0844 10.0364 15.728 9.35184C15.7615 9.31649 15.795 9.28301 15.8303 9.25139C15.5439 9.08956 15.2295 8.99841 14.8984 8.99841C13.561 8.99841 12.4766 10.4735 12.4766 12.2908C12.4766 14.1081 13.561 15.5832 14.8984 15.5832C16.2359 15.5832 17.3203 14.1081 17.3203 12.2908C17.3203 11.9653 17.285 11.6491 17.2199 11.3515C16.619 11.7849 15.8973 11.8425 15.4751 11.4463Z" fill="url(#paint1_linear_138_518)"/>
</g>
<defs>
<linearGradient id="paint0_linear_138_518" x1="3.79562" y1="8.99765" x2="3.79562" y2="15.5837" gradientUnits="userSpaceOnUse">
<stop stop-color="#424242"/>
<stop offset="1" stop-color="#212121"/>
</linearGradient>
<linearGradient id="paint1_linear_138_518" x1="14.8983" y1="8.99765" x2="14.8983" y2="15.5837" gradientUnits="userSpaceOnUse">
<stop stop-color="#424242"/>
<stop offset="1" stop-color="#212121"/>
</linearGradient>
</defs>
</svg>
