<svg width="22" height="22" viewBox="0 0 22 22" fill="none" xmlns="http://www.w3.org/2000/svg">
<path d="M11.3814 21.7827C11.3205 21.7827 11.2624 21.7803 11.2182 21.7781C11.1832 21.7813 11.147 21.7827 11.1107 21.7827C9.83148 21.7827 8.97615 21.1395 8.22134 20.5716C7.68034 20.1651 7.17012 19.7814 6.57238 19.6756C6.27881 19.6239 5.98679 19.5976 5.70463 19.5976C5.19623 19.5976 4.79445 19.6815 4.50112 19.7425C4.32061 19.7799 4.16496 19.8121 4.04466 19.8121C3.91866 19.8121 3.76558 19.7824 3.70178 19.5507C3.65121 19.3679 3.61494 19.1908 3.57994 19.0203C3.49236 18.5942 3.42885 18.3341 3.27885 18.3095C1.67441 18.0462 0.726441 17.6583 0.53761 17.1886C0.517826 17.1393 0.506766 17.0896 0.504314 17.0405C0.496959 16.9005 0.589892 16.7777 0.719656 16.7548C1.99381 16.5317 3.12673 15.8154 4.08714 14.6253C4.83111 13.7039 5.19646 12.8235 5.23568 12.7263C5.2374 12.7219 5.23939 12.7173 5.24144 12.7132C5.42657 12.3137 5.4634 11.9685 5.35125 11.6874C5.14452 11.1689 4.45984 10.9378 4.00686 10.785C3.8942 10.7471 3.78764 10.7112 3.70275 10.6753C3.3012 10.5066 2.6408 10.1502 2.72878 9.65825C2.79286 9.29952 3.23899 9.04969 3.59955 9.04969C3.69967 9.04969 3.78838 9.06837 3.86307 9.10566C4.27049 9.30867 4.63704 9.41158 4.95227 9.41158C5.3443 9.41158 5.53364 9.25283 5.57942 9.20771C5.56813 8.98529 5.55434 8.75014 5.54099 8.52771C5.54099 8.52747 5.54071 8.5248 5.54071 8.5248C5.44869 6.96791 5.33392 5.0304 5.7999 3.91932C7.19457 0.593494 10.1523 0.334872 11.0253 0.334872C11.0486 0.334872 11.4058 0.331112 11.4058 0.331112C11.4219 0.330809 11.4394 0.330566 11.4576 0.330566C12.333 0.330566 15.2968 0.589492 16.6924 3.91732C17.1584 5.02913 17.0435 6.96828 16.9512 8.5268L16.9468 8.60139C16.9342 8.81302 16.9225 9.0133 16.9126 9.20747C16.9557 9.24967 17.129 9.39521 17.4815 9.40994C17.782 9.39769 18.1274 9.29527 18.5077 9.1059C18.6252 9.0472 18.7554 9.03501 18.8438 9.03501C18.9773 9.03501 19.1133 9.06266 19.2265 9.11293L19.2326 9.11542C19.5553 9.23724 19.7666 9.48071 19.7712 9.73648C19.7752 9.97491 19.6087 10.3313 18.7892 10.6755C18.7053 10.7108 18.5982 10.747 18.4851 10.7851C18.0318 10.9381 17.3476 11.1691 17.1409 11.6873C17.0286 11.9683 17.0655 12.3134 17.2507 12.7128C17.2528 12.7172 17.2545 12.7216 17.2565 12.7262C17.3135 12.8683 18.6936 16.215 21.7726 16.7545C21.9023 16.7775 21.9954 16.9004 21.988 17.0402C21.9852 17.0904 21.9738 17.1406 21.9539 17.1897C21.7663 17.6568 20.8184 18.044 19.2135 18.3077C19.0629 18.3324 18.9995 18.5914 18.9127 19.0152C18.8768 19.1903 18.8402 19.3619 18.7903 19.5422C18.7436 19.7118 18.6398 19.7947 18.4729 19.7947H18.4478C18.3392 19.7947 18.1853 19.7738 17.9912 19.7334C17.652 19.6632 17.2715 19.5978 16.7877 19.5978C16.5056 19.5978 16.2136 19.6241 15.9197 19.6758C15.3226 19.7816 14.8125 20.1647 14.2724 20.5707C13.5161 21.1395 12.6605 21.7827 11.3814 21.7827Z" fill="#F5F5F5"/>
</svg>
