<svg width="113" height="113" viewBox="0 0 113 113" fill="none" xmlns="http://www.w3.org/2000/svg">
<circle cx="56.5195" cy="56.958" r="54" fill="#FC674A" stroke="#E8E8E8" stroke-width="4"/>
<path fill-rule="evenodd" clip-rule="evenodd" d="M51.1495 36.7227C50.1828 37.0952 49.2341 38.1646 48.6631 38.7532C47.9962 39.4406 47.3246 40.3832 46.8479 41.4002C44.2956 46.8434 44.5507 51.1872 44.9144 57.0574C44.9996 58.4332 44.1321 59.5198 42.7953 59.4172C41.8396 59.3442 41.6514 58.7662 41.3104 58.6959C40.8247 58.5954 40.1905 59.1312 39.9856 59.4368C38.9898 60.923 39.4026 65.6462 40.5265 66.8114C41.9512 68.2884 43.0317 67.7722 43.8099 68.0627C45.1083 68.5473 45.0294 69.4947 45.2577 71.0821C46.283 78.2132 50.029 84.221 56.7485 86.5757C61.4149 88.2108 67.2355 88.0098 71.7471 85.9415C74.5397 84.661 75.0371 83.8265 76.8185 82.1235C78.0089 80.9854 79.4497 78.4856 80.229 76.4937C81.5922 73.0088 81.6818 69.7955 81.9586 69.1397C82.5977 67.6247 84.1485 68.1148 85.0798 67.7162C86.2318 67.2237 86.7867 66.6766 87.0939 65.2871C87.5275 63.3265 88.2676 59.019 85.5067 58.6592C85.1443 59.1442 85.2627 59.2138 84.5577 59.5267C84.077 59.74 83.4923 59.7602 82.9922 59.5531C82.0659 59.1692 81.756 58.4098 81.7677 57.1623C81.8041 53.2915 80.7364 48.4795 78.1931 45.8994C77.1415 44.8327 75.4767 43.7916 73.3934 43.4744C72.4143 43.3252 68.4998 43.2857 66.5088 43.0734C61.2674 42.5143 54.1397 40.6182 51.1495 36.7227Z" fill="#F2E3AE"/>
<path fill-rule="evenodd" clip-rule="evenodd" d="M40.8449 53.4865C41.1863 49.5564 40.646 48.9304 41.8782 44.1743C42.7628 40.7597 44.3667 38.0122 46.5282 35.9274C47.6447 34.8507 50.075 32.8599 51.6097 33.4616C52.5608 33.8344 52.7453 34.8229 54.2569 35.9902C57.2973 38.3377 61.6878 39.5046 65.6298 39.9605C68.5909 40.3028 72.365 40.0551 74.9922 40.8454C82.7815 43.1881 83.6289 51.8693 84.0197 52.5203C84.5997 51.398 85.309 48.0249 85.5641 46.6062C86.7515 39.9948 85.8743 33.5518 82.0477 28.4633C77.4352 22.3297 69.1 18.4733 61.3606 20.5032C58.2657 21.3147 56.3583 22.6559 54.1506 24.4405C53.7766 24.7427 53.5202 25.0614 53.1695 25.3255C51.3777 26.6738 47.9432 24.9756 43.1917 28.311C42.8513 28.5501 42.4014 28.879 42.1386 29.1201C38.7038 32.2758 37.594 36.8508 37.5977 41.657C37.5997 43.9393 37.8487 46.2477 38.4936 48.2838C38.9255 49.6476 40.0895 52.6702 40.8453 53.4869L40.8449 53.4865Z" fill="#FFB31F"/>
<circle cx="73.2847" cy="53.4868" r="3.58154" fill="black"/>
<path fill-rule="evenodd" clip-rule="evenodd" d="M53.051 73.3586C52.2345 72.1736 50.5798 71.8532 49.3551 72.6435C48.1303 73.4334 47.7994 75.0348 48.6159 76.2199C54.7423 85.1127 68.2461 85.1127 74.3725 76.2199C75.1889 75.0348 74.8579 73.4334 73.6332 72.6435C72.4086 71.8532 70.7538 72.1736 69.9374 73.3586C65.9207 79.1889 57.0675 79.1889 53.051 73.3586Z" fill="#E4BC6E"/>
<path fill-rule="evenodd" clip-rule="evenodd" d="M64.9665 69.3299C63.2309 78.7733 52.8874 84.9103 45.8401 75.1455C53.4433 75.7987 59.0845 74.6099 64.9665 69.3299ZM52.9897 53.6033C53.1465 53.4001 52.8988 53.5617 53.1916 53.4306C53.2568 53.4015 53.4193 53.3849 53.5006 53.3733C57.8732 52.6823 61.2706 51.329 64.6585 48.5433C62.5707 57.3808 59.7424 56.2298 52.9897 53.6033ZM46.0885 54.7715C44.0651 62.1176 36.1628 62.1019 33.756 57.6051C38.5462 57.7816 41.8594 57.0292 46.0885 54.7715ZM65.118 34.1086C56.5191 41.2422 35.7168 49.1165 26.2079 47.1874C25.9588 47.516 26.1475 47.1641 26.0795 47.5644C26.0671 47.6376 26.1006 47.7622 26.078 47.9338C26.271 48.2292 28.0846 54.8713 28.4454 55.9796L28.729 56.8305C32.4788 67.3865 35.2629 74.4807 42.8859 82.9511C43.1073 83.0395 43.028 82.9665 43.233 83.1591C54.0084 93.2877 68.6809 87.8535 71.3968 73.9345L71.5175 73.3859C71.5836 73.2242 71.5532 73.2864 71.6413 73.1603C71.5838 72.8751 71.837 71.2527 71.9547 71.0284L72.0969 69.5668C72.0883 69.2944 72.0683 69.397 72.091 69.1389C72.0981 69.0587 72.0999 69.0337 72.1141 68.9646C72.1975 68.5636 72.1513 68.3932 72.1718 67.9738L72.2887 67.1269L72.2401 66.7543L72.1856 63.5697L72.1725 62.7849L72.081 61.3954L72.0097 60.6661L71.9344 59.7179L71.761 58.3402C71.6947 57.7574 71.4456 56.8762 71.5932 56.4027L71.4828 56.0933L71.3738 55.5256L71.2495 54.7093L69.968 48.3451C69.8485 47.8573 69.5831 47.098 69.6517 46.6976C69.3799 46.1968 69.26 45.5181 69.1205 44.9458L67.5566 39.6019L67.3213 38.8705L67.2614 38.6818L67.2001 38.2411C66.92 37.9458 66.7301 37.1172 66.572 36.6319L66.5605 36.3829L65.5516 33.7859L65.118 34.1086Z" fill="#374E63"/>
</svg>
