<svg width="25" height="25" viewBox="0 0 25 25" fill="none" xmlns="http://www.w3.org/2000/svg">
<path d="M9.61328 22.511C11.9136 23.2395 14.3998 23.1116 16.6133 22.151" stroke="white" stroke-width="1.5"/>
<path d="M3.95312 17.9713C4.83077 19.4914 6.09306 20.7537 7.61313 21.6313" stroke="white" stroke-width="1.5"/>
<path d="M2.66407 11.9711V12.9711C2.66246 13.9888 2.81761 15.0006 3.12408 15.9711" stroke="white" stroke-width="1.5"/>
<path d="M4.61422 6.97107C3.93476 7.87668 3.41403 8.8911 3.07422 9.97107" stroke="white" stroke-width="1.5"/>
<path d="M8.61328 3.79114C7.90242 4.10424 7.23109 4.50032 6.61328 4.97114" stroke="white" stroke-width="1.5"/>
<path d="M18.6133 20.9711C20.224 19.7631 21.4326 18.097 22.0809 16.1908C22.7292 14.2847 22.7869 12.2272 22.2467 10.2876C21.7064 8.34809 20.5933 6.61679 19.0529 5.32028C17.5125 4.02377 15.6166 3.22243 13.6133 3.02112" stroke="white" stroke-width="1.5"/>
<path d="M12.6133 9.47131V16.4713" stroke="white" stroke-width="1.58" stroke-miterlimit="10"/>
<path d="M16.1133 12.9713H9.11328" stroke="white" stroke-width="1.58" stroke-miterlimit="10"/>
</svg>
