<svg width="26" height="27" viewBox="0 0 26 27" fill="none" xmlns="http://www.w3.org/2000/svg">
<path d="M15.8624 5.65332H19.3998C20.0043 5.65332 20.55 6.02301 20.7879 6.59335L24.9297 16.5097V22.7134C24.9297 24.4265 23.5766 25.8153 21.9073 25.8153H3.77242C2.10323 25.8153 0.75 24.4265 0.75 22.7134V16.5097L4.89115 6.59335C5.12917 6.02301 5.67559 5.65332 6.28007 5.65332H9.81728" stroke="white" stroke-width="1.5" stroke-linecap="round" stroke-linejoin="round"/>
<path d="M17.3875 10.4385L12.8538 14.959L8.32031 10.4396" stroke="white" stroke-width="1.5" stroke-linecap="round" stroke-linejoin="round"/>
<path d="M12.8438 1V14.9583" stroke="white" stroke-width="1.5" stroke-linecap="round" stroke-linejoin="round"/>
<path d="M0.75 16.5098H6.79486C7.62953 16.5098 8.30608 17.2042 8.30608 18.0607V19.6117C8.30608 20.4682 8.98262 21.1626 9.81728 21.1626H15.8624C16.6964 21.1626 17.3736 20.4682 17.3736 19.6117V18.0607C17.3736 17.2042 18.0495 16.5098 18.8849 16.5098H24.9297" stroke="white" stroke-width="1.5" stroke-linecap="round" stroke-linejoin="round"/>
</svg>
