<svg width="113" height="113" viewBox="0 0 113 113" fill="none" xmlns="http://www.w3.org/2000/svg">
<circle cx="56.8555" cy="56.5933" r="54" fill="url(#paint0_linear_132_716)" stroke="#E8E8E8" stroke-width="4"/>
<path d="M62.8159 39.3227H35.9951C34.56 39.3227 33.4219 38.1845 33.4219 36.7495C33.4219 35.3144 34.56 34.1763 35.9951 34.1763H62.8653C64.3004 34.1763 65.4386 35.3144 65.4386 36.7495C65.4386 38.1845 64.2509 39.3227 62.8159 39.3227ZM62.8159 59.8589H35.9951C34.56 59.8589 33.4219 58.7207 33.4219 57.2857C33.4219 55.8506 34.56 54.7125 35.9951 54.7125H62.8653C64.3004 54.7125 65.4386 55.8506 65.4386 57.2857C65.3891 58.7207 64.2509 59.8589 62.8159 59.8589ZM50.6426 70.894H35.9951C34.56 70.894 33.4219 69.7559 33.4219 68.3208C33.4219 66.8857 34.56 65.7476 35.9951 65.7476H50.6426C52.0777 65.7476 53.2158 66.8857 53.2158 68.3208C53.2158 69.7559 52.0282 70.894 50.6426 70.894ZM59.3519 50.4073H35.9951C34.56 50.4073 33.4219 49.2691 33.4219 47.8341C33.4219 46.399 34.56 45.2609 35.9951 45.2609H59.3519C60.787 45.2609 61.9251 46.399 61.9251 47.8341C61.9251 49.2197 60.787 50.4073 59.3519 50.4073Z" fill="white"/>
<path d="M72.7137 70.4983V83.5128H30.3547V29.7228H72.7137V53.624L77.2168 49.7147V25.5166H25.8516V87.6695H77.1673V66.9849L72.7137 70.4983ZM81.7199 47.7353L78.8498 50.3085L84.9859 55.8508L87.856 53.2281L81.7199 47.7353ZM64.2518 63.5209L70.3879 69.0632L84.2931 56.4446L78.157 50.9518L64.2518 63.5209ZM69.3487 70.0529L63.2126 64.5106L62.5693 65.1045L60.8373 72.2303L68.7054 70.6468L69.3487 70.0529Z" fill="white"/>
<defs>
<linearGradient id="paint0_linear_132_716" x1="56.8555" y1="0.593262" x2="56.8555" y2="112.593" gradientUnits="userSpaceOnUse">
<stop stop-color="#016C87"/>
<stop offset="1" stop-color="#02A7CF"/>
</linearGradient>
</defs>
</svg>
