<svg width="22" height="22" viewBox="0 0 22 22" fill="none" xmlns="http://www.w3.org/2000/svg">
<path d="M13.9047 22H7.83718C2.3461 22 0 19.6536 0 14.1618V8.09354C0 2.60177 2.3461 0.255371 7.83718 0.255371H9.85968C10.2743 0.255371 10.6181 0.599239 10.6181 1.0139C10.6181 1.42857 10.2743 1.77244 9.85968 1.77244H7.83718C3.17532 1.77244 1.51687 3.43109 1.51687 8.09354V14.1618C1.51687 18.8242 3.17532 20.4829 7.83718 20.4829H13.9047C18.5665 20.4829 20.225 18.8242 20.225 14.1618V12.139C20.225 11.7244 20.5688 11.3805 20.9834 11.3805C21.398 11.3805 21.7419 11.7244 21.7419 12.139V14.1618C21.7419 19.6536 19.3958 22 13.9047 22Z" fill="white"/>
<path d="M7.33658 16.8824C6.71972 16.8824 6.15342 16.6599 5.73881 16.2554C5.24329 15.7598 5.03093 15.0417 5.14217 14.2832L5.57701 11.239C5.65791 10.6524 6.04218 9.89383 6.45679 9.47917L14.4254 1.50948C16.4378 -0.50316 18.4805 -0.50316 20.4929 1.50948C21.5952 2.61188 22.0907 3.73451 21.9895 4.85714C21.8985 5.76738 21.4131 6.65739 20.4929 7.56763L12.5242 15.5373C12.1096 15.952 11.3512 16.3363 10.7647 16.4172L7.72085 16.8521C7.58939 16.8824 7.45793 16.8824 7.33658 16.8824ZM15.4973 2.58154L7.52872 10.5512C7.33658 10.7434 7.11411 11.1884 7.07366 11.4514L6.63882 14.4956C6.59837 14.7889 6.65904 15.0316 6.81073 15.1833C6.96242 15.335 7.20512 15.3957 7.49838 15.3553L10.5422 14.9204C10.8051 14.8799 11.2602 14.6574 11.4422 14.4653L19.4109 6.49557C20.0682 5.83817 20.412 5.25157 20.4625 4.70543C20.5232 4.04804 20.1794 3.35019 19.4109 2.57143C17.7929 0.953223 16.6805 1.40834 15.4973 2.58154Z" fill="white"/>
<path d="M18.8061 8.93292C18.7353 8.93292 18.6646 8.9228 18.6039 8.90258C15.9443 8.15416 13.8308 6.04038 13.0825 3.38046C12.9712 2.97591 13.2038 2.56125 13.6083 2.43988C14.0128 2.32863 14.4274 2.56125 14.5387 2.9658C15.1454 5.12003 16.8544 6.82925 19.0084 7.43608C19.4129 7.54733 19.6455 7.97211 19.5342 8.37666C19.4432 8.72053 19.1398 8.93292 18.8061 8.93292Z" fill="white"/>
</svg>
