<svg width="25" height="26" viewBox="0 0 25 26" fill="none" xmlns="http://www.w3.org/2000/svg">
<path d="M18.7672 2.89463L16.6766 1.59302L16.6654 1.58659C16.0917 1.2155 15.3026 1.39936 14.9066 2.12027L14.7764 2.36374C14.7764 2.36416 14.7764 2.36472 14.7764 2.36514C14.1719 3.51129 13.2624 4.28494 12.1752 4.28494C11.088 4.28494 10.1756 3.51199 9.56552 2.36654L9.43122 2.11649L9.42981 2.11229C9.059 1.40524 8.27681 1.21242 7.69891 1.58644L7.68772 1.59316L5.59718 2.89435C4.83598 3.36786 4.52953 4.4919 4.99969 5.39037C5.61677 6.54043 5.74691 7.73065 5.24177 8.68174C4.72684 9.65227 3.67038 10.1508 2.39984 10.1508C1.58266 10.1508 0.804688 10.9008 0.804688 11.9488V14.2623C0.804688 15.302 1.57427 16.0601 2.39984 16.0601C3.67038 16.0601 4.72684 16.5589 5.24177 17.5316C5.74691 18.4842 5.61538 19.6772 5.0011 20.8332C4.53094 21.7304 4.83458 22.842 5.59718 23.3165L7.68772 24.6181L7.69891 24.6245C8.27261 24.9956 9.06179 24.8117 9.45778 24.0908L9.58794 23.8473M18.7672 2.89463L19.3632 5.37931M18.7672 2.89463C19.5312 3.3694 19.8348 4.48182 19.3632 5.37931M9.58794 23.8473C9.58794 23.8469 9.58794 23.8478 9.58794 23.8473ZM9.58794 23.8473C10.1924 22.7011 11.1019 21.9261 12.1892 21.9261C13.2764 21.9261 14.1887 22.699 14.7988 23.8445L14.9304 24.0907C15.3263 24.8117 16.1169 24.9957 16.6892 24.6246L16.7004 24.6179L18.791 23.3167C19.555 22.8415 19.8572 21.7164 19.3884 20.8343M19.3884 20.8343L20.0055 20.5062M19.3884 20.8343C18.7728 19.6778 18.6412 18.4848 19.1464 17.5316C19.6613 16.5589 20.7192 16.0601 21.9883 16.0601C22.8069 16.0601 23.5849 15.3102 23.5849 14.2623V11.9521C23.5737 10.9081 22.7999 10.1508 21.9757 10.1508C20.7066 10.1508 19.6501 9.652 19.1338 8.68062C18.6272 7.72883 18.7532 6.53595 19.3632 5.37931M19.3632 5.37931C19.3632 5.37945 19.3632 5.37917 19.3632 5.37931ZM7.56179 13.1055C7.56179 15.7882 9.58514 18.0773 12.1878 18.0773C14.7918 18.0773 16.8152 15.7882 16.8152 13.1055C16.8152 10.4229 14.7918 8.13378 12.1878 8.13378C9.58514 8.13378 7.56179 10.4229 7.56179 13.1055Z" stroke="white" stroke-width="1.5"/>
</svg>
